<?xml version="1.0" standalone="no"?>
<!DOCTYPE svg PUBLIC "-//W3C//DTD SVG 20010904//EN"
 "http://www.w3.org/TR/2001/REC-SVG-20010904/DTD/svg10.dtd">
<svg version="1.0" xmlns="http://www.w3.org/2000/svg"
 width="384.000000pt" height="384.000000pt" viewBox="0 0 384.000000 384.000000"
 preserveAspectRatio="xMidYMid meet">

<g transform="translate(0.000000,384.000000) scale(0.100000,-0.100000)"
fill="#000000" stroke="none">
<path d="M1900 2879 c-132 -26 -267 -133 -330 -263 -70 -142 -70 -214 0 -248
46 -24 77 -23 130 5 51 25 90 88 90 143 0 39 -39 89 -75 98 -14 4 -25 10 -25
15 0 16 88 90 138 115 91 46 222 52 314 13 78 -33 160 -132 183 -222 27 -107
21 -292 -14 -451 -11 -47 -21 -87 -23 -90 -3 -2 -10 15 -17 38 -18 60 -120
159 -186 181 -161 55 -350 14 -517 -111 -129 -97 -232 -220 -286 -345 -12 -26
-33 -95 -48 -154 -43 -173 -26 -297 60 -426 105 -158 260 -225 460 -199 239
31 453 193 599 454 99 178 196 482 217 682 31 302 -78 577 -276 696 -121 73
-255 96 -394 69z m155 -753 c105 -44 155 -126 163 -265 6 -109 -7 -187 -57
-333 -51 -151 -89 -224 -155 -295 -104 -112 -228 -163 -351 -143 -82 13 -112
28 -153 74 -37 42 -52 91 -52 166 0 137 77 437 147 572 57 110 167 204 268
229 52 12 154 10 190 -5z"/>
</g>
</svg>
