<?xml version="1.0" standalone="no"?>
<!DOCTYPE svg PUBLIC "-//W3C//DTD SVG 20010904//EN"
 "http://www.w3.org/TR/2001/REC-SVG-20010904/DTD/svg10.dtd">
<svg version="1.0" xmlns="http://www.w3.org/2000/svg"
 width="900.000000pt" height="675.000000pt" viewBox="0 0 900.000000 675.000000"
 preserveAspectRatio="xMidYMid meet">

<g transform="translate(0.000000,675.000000) scale(0.100000,-0.100000)"
fill="#000000" stroke="none">
<path d="M5640 6413 c-180 -32 -368 -135 -573 -316 -348 -309 -489 -795 -656
-2262 -36 -308 -86 -830 -101 -1040 -29 -405 -195 -1525 -255 -1714 -97 -306
-258 -494 -525 -611 -86 -38 -95 -38 -76 -2 37 73 39 197 3 268 -51 101 -188
195 -303 210 -139 17 -319 -79 -389 -207 -22 -42 -28 -65 -28 -118 -1 -128 85
-230 258 -305 69 -31 71 -31 235 -30 142 2 179 5 263 28 281 73 638 360 767
616 146 290 247 699 334 1355 23 169 39 297 116 920 35 282 79 676 90 810 33
405 169 1427 210 1572 93 335 270 547 559 668 35 14 65 24 68 21 2 -2 -3 -17
-13 -32 -29 -43 -32 -197 -7 -256 48 -108 165 -192 301 -218 94 -17 234 34
324 118 160 150 130 344 -72 467 -99 60 -162 75 -312 74 -73 0 -171 -8 -218
-16z"/>
</g>
</svg>
