<?xml version="1.0" standalone="no"?>
<!DOCTYPE svg PUBLIC "-//W3C//DTD SVG 20010904//EN"
 "http://www.w3.org/TR/2001/REC-SVG-20010904/DTD/svg10.dtd">
<svg version="1.0" xmlns="http://www.w3.org/2000/svg"
 width="734.000000pt" height="642.000000pt" viewBox="0 0 734.000000 642.000000"
 preserveAspectRatio="xMidYMid meet">

<g transform="translate(0.000000,642.000000) scale(0.100000,-0.100000)"
fill="#000000" stroke="none">
<path d="M6116 6408 c-11 -6 -33 -13 -50 -15 -29 -3 -96 -41 -96 -54 0 -7 108
-5 114 2 28 37 58 79 55 79 -2 0 -13 -6 -23 -12z"/>
<path d="M6240 6390 c-9 -6 -10 -10 -3 -10 6 0 15 5 18 10 8 12 4 12 -15 0z"/>
<path d="M5913 6352 c-48 -20 -66 -34 -32 -25 13 3 36 6 50 7 16 1 26 7 26 19
1 9 1 17 0 16 -1 0 -21 -8 -44 -17z"/>
<path d="M6151 6317 c-12 -32 -72 -62 -86 -43 -7 9 -19 10 -40 4 -19 -5 -31
-4 -34 3 -2 6 -16 -2 -31 -18 -15 -15 -38 -36 -51 -45 -24 -17 -24 -17 -2 -18
12 0 25 5 28 10 9 15 25 12 25 -5 0 -8 -11 -17 -25 -21 -14 -3 -32 -15 -39
-26 -7 -10 -17 -18 -22 -17 -17 4 -44 -13 -44 -27 0 -8 -4 -14 -9 -14 -5 0
-13 -9 -16 -20 -3 -11 -11 -20 -16 -20 -6 0 -7 5 -3 11 4 8 0 8 -15 0 -25 -14
-28 -23 -3 -14 9 3 14 3 10 -1 -4 -5 -23 -9 -42 -11 -40 -2 -69 -22 -62 -41 6
-15 -18 -37 -29 -26 -4 4 -5 -2 -1 -14 4 -14 -2 -30 -22 -52 -16 -18 -32 -29
-35 -25 -9 9 -9 33 1 32 22 -4 28 4 24 36 -3 29 -8 35 -28 35 -23 0 -22 3 21
58 24 33 54 66 66 74 12 8 20 20 18 26 -6 19 -88 -38 -156 -109 -32 -33 -74
-69 -93 -80 -33 -19 -34 -20 -7 -16 38 6 34 -7 -7 -21 -45 -17 -57 -49 -26
-72 16 -12 21 -23 16 -35 -3 -10 -2 -23 4 -30 12 -14 -10 -37 -41 -42 -25 -4
-24 19 1 42 11 10 18 20 15 23 -5 6 -99 -54 -115 -74 -7 -7 -17 -14 -23 -14
-5 0 -3 8 5 18 8 9 17 27 20 38 4 17 2 20 -12 17 -30 -8 -63 -50 -56 -70 5
-13 9 -14 15 -5 6 10 11 9 21 -3 17 -20 1 -33 -36 -29 -14 1 -22 -2 -18 -8 3
-5 13 -7 21 -4 11 5 13 2 8 -11 -4 -10 -9 -25 -12 -33 -6 -19 -73 -63 -73 -48
0 5 -8 7 -17 4 -15 -5 -15 -4 1 9 11 8 21 24 23 36 2 11 10 27 18 35 27 27 16
36 -14 12 -21 -16 -28 -29 -25 -43 4 -16 3 -17 -6 -5 -11 16 -15 12 -70 -56
-9 -11 -29 -29 -44 -42 -28 -21 -28 -23 -11 -36 22 -16 12 -36 -15 -29 -15 4
-19 1 -15 -9 3 -8 -8 -27 -25 -43 -49 -46 -34 -63 20 -23 16 12 32 19 35 16
10 -9 -69 -55 -128 -74 -52 -17 -74 -34 -46 -34 7 0 0 -9 -14 -20 -14 -11 -32
-17 -41 -14 -10 4 -18 0 -22 -11 -4 -9 -16 -21 -28 -26 -11 -5 -32 -16 -46
-26 -16 -11 -11 -2 14 25 65 69 26 66 -61 -5 -24 -19 -43 -32 -43 -29 0 12
-89 -92 -106 -124 -10 -19 -18 -37 -19 -40 -2 -17 -19 -30 -40 -30 -17 0 -23
-4 -19 -14 6 -16 -45 -55 -63 -49 -12 4 -18 -9 -14 -30 1 -4 -10 -12 -24 -17
-13 -5 -30 -18 -37 -30 -17 -26 -25 -25 -30 5 -3 13 -2 22 2 20 10 -6 32 20
23 28 -3 4 0 13 7 22 22 26 2 30 -25 5 -14 -13 -25 -33 -25 -44 -1 -12 -18
-36 -38 -53 -20 -18 -52 -46 -71 -63 -19 -16 -37 -27 -40 -24 -3 3 4 14 17 24
14 12 18 21 12 25 -16 10 -40 -15 -40 -42 0 -13 -11 -36 -25 -51 -17 -18 -24
-34 -21 -48 5 -17 -8 -29 -67 -68 -65 -42 -96 -54 -89 -33 4 13 -11 7 -42 -16
-44 -33 -60 -42 -53 -29 10 16 -4 44 -19 38 -33 -13 -19 16 30 64 30 29 59 62
66 75 7 13 23 29 36 36 13 7 24 17 24 23 0 5 24 33 53 61 118 115 108 140 -15
38 -94 -77 -190 -153 -216 -168 -67 -40 -114 -75 -162 -118 l-54 -49 -21 25
c-11 13 -76 109 -145 212 -69 103 -149 218 -177 256 -29 38 -53 72 -53 75 0
12 -45 64 -55 64 -7 0 -19 8 -28 18 -19 20 -23 37 -7 27 16 -10 11 1 -7 16
-14 12 -16 12 -9 -1 5 -8 -3 -1 -18 15 -14 17 -25 35 -26 42 0 6 -5 15 -12 19
-7 5 -9 2 -4 -7 4 -8 -9 4 -28 26 -20 22 -39 49 -42 60 -3 11 -60 73 -126 137
-83 80 -119 122 -115 132 4 10 -6 25 -30 43 -80 62 -227 189 -264 228 -39 40
-37 20 3 -36 18 -24 23 -37 13 -28 -11 9 -30 25 -42 35 -13 10 -23 25 -23 33
0 8 -3 11 -7 8 -3 -4 -15 0 -25 10 -19 17 -25 39 -8 28 6 -3 7 1 4 9 -8 20 5
20 26 1 16 -14 17 -14 12 10 -5 30 -14 37 -54 40 -21 2 -28 -1 -24 -11 7 -19
-10 -27 -34 -14 -14 8 -20 8 -20 0 0 -6 -5 -8 -12 -4 -7 4 -8 3 -4 -5 4 -6 0
-14 -8 -17 -9 -3 -16 -12 -16 -20 0 -13 -58 -50 -73 -46 -4 1 -7 -5 -7 -14 0
-9 -5 -12 -12 -8 -8 5 -9 0 -5 -16 l6 -22 -23 21 c-27 25 -36 26 -36 4 0 -10
12 -27 27 -39 16 -12 25 -25 22 -28 -3 -4 -17 3 -32 14 -14 11 -31 20 -38 20
-7 0 -20 6 -28 14 -26 22 -68 28 -75 11 -3 -8 -14 -15 -24 -15 -18 0 -48 -23
-124 -95 -25 -24 -47 -35 -73 -37 -43 -3 -51 -11 -30 -31 19 -20 19 -27 0 -27
-17 0 -19 -18 -5 -54 7 -20 6 -24 -5 -19 -8 3 -15 11 -15 19 0 19 -15 18 -35
-3 -11 -10 -15 -27 -13 -45 4 -21 1 -27 -9 -24 -17 7 89 -147 135 -196 25 -27
30 -36 16 -32 -10 3 -37 31 -59 61 -78 110 -152 171 -171 141 -9 -14 -44 -9
-50 7 -4 8 -13 15 -21 15 -10 0 -7 -9 11 -33 15 -19 26 -37 26 -41 0 -5 14
-28 30 -53 17 -24 30 -49 30 -56 0 -7 -9 3 -20 21 -21 34 -40 42 -40 17 0 -15
21 -37 88 -91 17 -14 30 -30 27 -34 -9 -14 7 -41 21 -36 15 6 54 -43 54 -68 0
-9 9 -21 20 -28 11 -7 20 -17 20 -21 0 -5 6 -14 12 -21 7 -7 38 -45 68 -84 30
-39 61 -71 68 -72 26 0 11 -28 -19 -32 -35 -5 -59 13 -59 43 0 13 -12 25 -35
35 -19 8 -35 19 -35 24 0 6 -15 26 -32 45 -72 74 -99 106 -109 129 -7 14 -22
27 -34 30 -12 3 -30 17 -38 30 -24 36 -66 80 -72 74 -8 -7 87 -137 139 -190
25 -26 46 -56 46 -67 0 -21 48 -82 135 -172 29 -30 61 -72 71 -92 10 -20 24
-37 31 -37 7 0 13 -6 13 -14 0 -21 20 -30 33 -17 8 8 8 14 -1 23 -7 7 -12 19
-12 27 0 9 10 0 22 -19 12 -19 31 -43 42 -53 10 -9 16 -20 12 -24 -4 -4 -17 4
-29 19 -18 20 -24 23 -34 13 -16 -17 20 -97 40 -89 7 2 21 -3 32 -11 19 -15
19 -16 -3 -5 -22 11 -23 10 -17 -12 8 -24 24 -40 36 -33 3 3 9 19 13 36 5 27
8 30 21 19 8 -7 15 -18 15 -25 0 -8 6 -15 13 -18 18 -6 3 -18 -27 -21 -34 -4
-40 -11 -27 -33 10 -17 10 -17 11 0 0 9 5 17 10 17 6 0 10 -6 9 -12 -4 -31 2
-48 17 -48 8 0 13 -4 10 -8 -2 -4 -1 -14 5 -22 6 -10 9 -11 9 -3 0 19 42 9 54
-13 6 -10 26 -38 43 -63 18 -24 33 -49 33 -55 0 -6 -5 -4 -10 4 -8 13 -10 12
-10 -4 0 -19 0 -19 -13 -1 -10 13 -16 15 -21 6 -8 -12 9 -41 22 -39 21 2 32
-4 32 -17 0 -8 -5 -15 -11 -15 -6 0 -18 -8 -27 -17 -15 -15 -15 -16 -1 -11 11
4 19 -3 28 -28 13 -35 45 -46 68 -23 15 15 33 2 26 -19 -5 -13 -2 -12 13 4 18
19 51 23 39 4 -3 -5 1 -28 9 -51 10 -28 12 -48 6 -58 -7 -12 -9 -9 -10 14 0
27 -1 28 -16 13 -19 -19 -11 -36 23 -49 16 -6 23 -15 19 -24 -3 -8 -1 -17 3
-20 13 -7 52 -95 47 -104 -8 -12 40 -84 58 -87 9 -1 14 2 10 7 -3 5 0 9 5 9 6
0 11 -4 11 -9 0 -5 12 -8 27 -8 19 0 37 -13 62 -41 27 -30 42 -39 59 -36 26 5
26 6 5 -37 -16 -35 -55 -73 -175 -176 -44 -39 -70 -69 -77 -92 -9 -31 -35 -60
-55 -61 -4 0 -1 12 9 26 26 40 12 38 -35 -6 -58 -54 -76 -55 -43 -2 l18 27
-34 -28 c-20 -17 -42 -27 -53 -24 -10 3 -16 1 -12 -4 7 -12 -3 -11 -25 0 -13
7 -18 6 -18 -5 0 -7 5 -14 11 -14 6 -1 0 -7 -14 -15 -31 -18 -64 -20 -54 -3 4
7 3 8 -5 4 -6 -4 -8 -12 -5 -18 4 -6 0 -14 -7 -19 -42 -27 -39 22 3 55 39 30
29 35 -10 6 -15 -11 -37 -28 -50 -38 -46 -34 -92 -87 -88 -99 8 -20 -44 -74
-91 -95 -23 -10 -45 -23 -48 -28 -4 -6 -25 -20 -48 -31 l-42 -20 28 23 c67 54
82 70 63 64 -16 -6 -17 -4 -6 9 17 20 6 19 -28 -2 -33 -22 -36 -24 -91 -73
-26 -23 -40 -43 -36 -50 5 -7 10 -8 14 -2 6 9 51 27 51 20 0 -14 -114 -126
-156 -154 -28 -18 -64 -49 -82 -68 -17 -19 -55 -50 -84 -70 -52 -36 -108 -77
-199 -144 -24 -18 -71 -59 -104 -90 -94 -90 -171 -152 -204 -163 -25 -9 -30
-15 -26 -32 4 -18 -14 -40 -90 -111 -119 -111 -204 -214 -248 -303 -18 -37
-56 -98 -83 -134 -27 -37 -55 -75 -61 -85 -11 -16 -11 -15 -3 9 14 39 12 44
-5 21 -14 -18 -15 -16 -10 26 4 38 3 42 -6 25 -7 -11 -16 -22 -20 -25 -10 -7
0 -50 12 -50 5 0 9 -5 9 -11 0 -6 -8 -8 -17 -5 -13 4 -12 1 4 -13 l23 -19 -40
-49 c-22 -26 -44 -48 -48 -49 -17 -2 -42 -17 -42 -26 0 -5 5 -6 10 -3 17 11
11 -10 -14 -44 -13 -17 -27 -53 -31 -79 -4 -26 -16 -69 -26 -97 -10 -27 -19
-59 -19 -70 0 -11 -6 -32 -14 -47 -19 -36 -3 -57 47 -60 40 -2 46 -11 22 -34
-17 -18 -20 -44 -5 -44 6 0 13 7 16 15 11 27 24 16 18 -14 -5 -21 0 -38 17
-61 19 -24 21 -33 10 -39 -10 -7 -8 -12 9 -24 15 -10 18 -16 8 -20 -9 -3 -7
-11 10 -28 17 -19 26 -21 39 -13 13 8 21 6 35 -8 10 -10 18 -23 18 -28 0 -6 5
-10 11 -10 6 0 8 9 4 20 -5 16 -2 20 19 20 13 0 31 3 40 6 11 4 16 1 16 -10 0
-10 -9 -16 -22 -17 -17 -1 -19 -2 -5 -6 9 -2 17 -11 17 -18 0 -16 -50 -69 -57
-61 -8 8 -38 -26 -39 -45 -1 -16 2 -16 38 -3 21 7 52 11 68 7 31 -6 36 -12 21
-28 -4 -6 -4 -25 1 -44 8 -29 12 -33 36 -28 15 3 34 8 44 12 11 4 18 0 23 -14
6 -21 27 -30 73 -34 27 -2 27 -2 0 -40 -35 -51 -65 -64 -52 -24 5 15 -11 4
-51 -36 -61 -61 -65 -88 -11 -67 32 12 86 13 86 3 0 -5 -9 -19 -20 -33 -17
-21 -21 -23 -30 -10 -7 11 -10 11 -10 2 0 -19 26 -25 60 -14 22 8 30 8 30 -1
0 -7 5 -4 11 6 6 9 15 15 20 11 5 -3 16 -1 23 6 19 15 56 21 56 9 0 -5 -14
-18 -31 -27 -17 -9 -41 -25 -53 -34 l-21 -17 24 6 c14 4 26 1 32 -8 7 -11 12
-12 28 -2 19 12 20 11 10 -13 -5 -15 -8 -28 -6 -30 5 -6 92 41 109 59 12 13
18 15 24 6 4 -7 -1 -18 -11 -26 -11 -7 -13 -13 -7 -13 7 0 12 -9 12 -20 0 -24
3 -25 38 -3 l27 17 -22 -25 c-13 -14 -23 -31 -23 -37 0 -7 -7 -12 -15 -12 -15
0 -31 -29 -39 -73 -2 -12 -8 -30 -12 -41 -4 -11 -2 -21 7 -27 22 -14 29 -11
42 19 7 15 29 55 50 88 20 34 37 73 37 87 0 18 4 25 14 21 14 -5 31 24 20 35
-4 3 -9 0 -11 -6 -7 -20 -23 -15 -17 4 5 15 3 15 -10 -1 -16 -19 -16 -19 -16
6 0 23 4 26 25 22 18 -3 25 0 25 11 0 8 5 15 10 15 6 0 10 8 10 18 -1 14 -4
13 -20 -7 -12 -13 -20 -18 -20 -10 1 20 67 89 86 89 8 0 13 4 10 9 -6 10 -56
3 -73 -11 -7 -5 -14 -5 -18 2 -10 15 -23 12 -28 -7 -3 -12 -5 -10 -6 7 0 14 6
34 14 44 13 17 13 23 1 41 -13 20 -12 25 14 56 l29 34 1 -29 c0 -21 4 -27 15
-22 8 3 15 0 15 -6 0 -7 7 -3 15 8 8 10 15 36 15 56 0 61 37 146 70 163 39 20
45 19 28 -8 -17 -24 -29 -97 -16 -97 4 0 26 27 48 60 36 53 49 64 71 62 4 -1
41 41 83 92 42 52 100 113 129 137 28 24 77 67 107 95 65 60 326 284 390 334
24 19 70 58 101 85 31 28 111 92 178 143 68 52 130 100 139 107 9 8 60 45 112
82 53 37 105 76 115 86 11 10 51 38 89 63 38 24 72 48 75 53 4 5 24 20 47 33
55 32 143 101 144 113 0 6 34 35 76 65 41 30 90 67 107 82 18 15 35 28 39 28
4 0 33 23 64 50 31 28 61 50 66 50 11 0 17 -6 80 -82 37 -43 53 -55 68 -51 22
6 26 -7 9 -24 -7 -7 -7 -13 -1 -17 19 -11 23 32 7 64 -16 31 -32 42 -21 15 6
-17 -9 -20 -20 -4 -10 16 18 30 34 17 7 -7 20 -25 29 -42 15 -28 17 -29 23
-11 4 11 3 27 -4 35 -6 8 -17 26 -25 40 -12 22 -9 21 18 -7 18 -17 33 -44 35
-58 2 -14 8 -31 15 -38 10 -9 11 -8 5 7 -6 15 -4 17 6 11 10 -6 12 -3 8 13 -6
20 0 26 20 20 4 -1 6 -8 4 -15 -2 -7 2 -13 8 -13 5 0 9 3 9 8 -1 4 -1 15 0 24
1 17 2 17 21 1 25 -21 25 -31 3 -57 -12 -13 -13 -17 -3 -10 29 21 61 24 68 6
3 -9 12 -23 19 -30 7 -7 13 -20 13 -28 0 -9 5 -13 13 -9 6 4 4 0 -5 -8 -22
-17 -23 -31 -3 -23 16 6 21 -9 7 -18 -8 -5 -67 13 -88 26 -7 5 -11 -1 -9 -15
0 -12 -3 -30 -8 -41 -6 -12 -5 -26 3 -41 9 -17 9 -28 1 -44 -13 -23 -4 -48 23
-70 9 -8 13 -18 9 -24 -3 -6 -1 -7 5 -3 6 3 15 -2 21 -11 6 -10 11 -14 11 -10
0 11 29 -19 85 -90 28 -35 52 -58 53 -53 2 6 -1 17 -8 25 -12 15 -5 39 10 30
4 -2 7 9 5 25 -1 17 -23 61 -48 98 -25 37 -49 79 -53 95 -6 26 -5 27 20 17 23
-8 27 -6 40 18 9 15 15 22 16 16 0 -13 75 -56 83 -48 2 2 10 -3 18 -13 12 -15
12 -16 -2 -11 -13 5 -16 0 -15 -23 1 -16 5 -29 10 -29 6 0 5 -5 -1 -11 -25
-25 16 -135 60 -163 24 -15 35 3 12 21 -15 12 -16 14 -3 10 9 -3 22 1 29 9 8
10 15 12 22 5 7 -7 6 -15 -3 -26 -7 -8 -10 -18 -6 -22 3 -3 6 -1 6 6 0 8 8 6
23 -6 20 -15 22 -20 10 -31 -10 -11 -17 -11 -27 -3 -11 9 -13 6 -11 -19 2 -35
31 -71 54 -69 14 1 14 2 -1 6 -9 2 -19 11 -22 19 -3 9 -1 12 4 9 6 -3 13 1 16
10 4 9 12 14 19 11 7 -2 22 2 34 10 12 9 21 11 21 5 0 -6 6 -11 14 -11 9 0 12
-7 9 -19 -3 -13 -11 -17 -25 -13 -15 3 -19 1 -16 -9 6 -16 59 -19 70 -4 4 6 8
2 8 -9 0 -13 -5 -17 -20 -13 -23 6 -43 -20 -28 -37 5 -6 16 -20 24 -31 14 -19
15 -17 9 20 -6 38 -6 39 9 18 10 -13 23 -19 35 -16 12 3 20 -2 23 -15 4 -15 2
-19 -8 -15 -7 3 -21 -3 -30 -12 -16 -15 -15 -17 5 -31 11 -8 21 -23 21 -32 0
-9 7 -26 15 -36 8 -11 15 -27 15 -36 0 -9 10 -26 23 -38 l22 -21 0 39 c0 21
-3 36 -7 34 -5 -3 -8 0 -8 7 0 6 -7 17 -17 24 -18 14 -9 37 12 29 7 -3 18 -19
24 -35 5 -16 15 -29 20 -29 6 0 8 8 4 18 -6 15 -3 14 17 -3 20 -17 23 -18 17
-2 -4 9 -3 17 2 17 4 0 6 11 4 24 -3 16 0 25 10 28 13 2 12 7 -4 27 -15 18
-23 21 -31 13 -17 -17 -28 -15 -28 7 0 10 -7 21 -15 25 -8 3 -15 11 -15 18 0
6 13 0 28 -15 21 -20 31 -24 39 -16 15 15 44 4 37 -14 -3 -8 2 -20 11 -27 22
-18 36 3 32 45 -3 22 -8 29 -21 27 -15 -3 -15 0 -4 18 l13 21 17 -21 c9 -11
21 -20 26 -20 5 0 13 -11 16 -25 4 -14 13 -25 21 -25 8 0 14 -6 12 -12 -1 -8
7 -12 22 -10 13 2 21 -1 17 -6 -7 -11 21 -25 34 -17 10 6 20 -7 25 -37 5 -26
63 -88 83 -88 9 0 11 7 6 23 l-6 22 26 -24 c14 -14 26 -29 26 -34 0 -6 -3 -7
-6 -4 -4 3 -15 2 -25 -3 -15 -9 -11 -16 37 -67 40 -41 58 -53 66 -45 8 8 6 15
-6 27 -9 9 -16 22 -16 29 0 21 36 13 63 -14 13 -14 36 -33 51 -43 31 -21 35
-48 7 -42 -15 3 -19 -1 -16 -15 3 -13 -1 -17 -11 -13 -8 3 -14 12 -14 20 0 30
-17 2 -18 -29 -1 -28 3 -34 20 -35 33 -3 52 -27 40 -49 -10 -18 -11 -18 -17
-1 -4 9 -16 17 -27 17 -17 0 -19 -5 -14 -25 4 -16 2 -25 -5 -25 -6 0 -9 -7 -5
-15 3 -8 1 -15 -4 -15 -6 0 -10 5 -10 12 0 6 -3 8 -6 5 -4 -4 -1 -14 7 -23 7
-9 18 -26 24 -38 7 -12 20 -21 33 -20 12 0 22 -2 22 -6 0 -4 11 -12 25 -18 33
-15 32 -3 -5 38 -38 42 -38 47 0 20 30 -21 79 -82 63 -79 -32 6 -47 -22 -20
-38 7 -4 20 -17 28 -28 8 -11 21 -20 29 -20 10 0 14 -8 12 -22 -2 -13 2 -23 8
-23 20 0 57 -35 52 -49 -3 -8 0 -11 5 -8 6 4 16 1 24 -6 8 -7 12 -11 10 -10
-2 2 -10 -2 -16 -7 -13 -11 -32 5 -96 80 -18 20 -28 27 -25 16 5 -16 4 -17 -8
-7 -8 7 -20 10 -26 6 -5 -3 -10 0 -10 8 0 8 -19 27 -42 43 -58 38 -108 90
-108 112 -1 15 -2 14 -12 -3 -15 -24 -19 -47 -8 -40 9 5 42 -29 35 -37 -6 -6
18 -27 47 -43 12 -5 20 -14 19 -19 -2 -5 1 -12 6 -15 4 -3 14 -17 22 -31 l14
-25 -27 24 c-14 14 -29 21 -33 16 -5 -4 -2 -10 5 -12 17 -6 15 -33 -3 -33 -8
0 -15 -5 -15 -11 0 -5 -5 -7 -11 -3 -8 4 -7 9 2 15 13 8 5 13 -13 10 -5 0 -8
5 -8 12 0 7 -10 26 -22 43 -18 22 -30 28 -52 26 l-28 -4 28 -29 c20 -21 30
-26 36 -17 6 10 10 10 18 -2 13 -21 12 -27 -6 -34 -8 -3 -13 -2 -10 2 2 4 -4
8 -14 8 -12 0 -16 -6 -12 -16 7 -20 124 -136 134 -133 5 2 8 -4 8 -12 0 -9 6
-12 17 -8 12 5 15 2 10 -10 -4 -11 -2 -14 8 -11 7 3 32 -12 55 -34 39 -39 40
-41 18 -48 -22 -6 -21 -7 10 -35 38 -34 56 -37 49 -8 -4 16 -3 18 9 8 7 -6 12
-14 9 -18 -2 -4 5 -7 17 -7 12 1 23 -5 25 -11 3 -7 -2 -13 -11 -13 -9 0 -16
-4 -16 -10 0 -12 52 -60 66 -60 6 0 21 -9 34 -20 13 -11 28 -20 34 -20 6 0
-14 22 -44 49 -39 35 -48 48 -32 44 12 -3 22 -9 22 -14 0 -5 7 -9 15 -9 8 0
15 -4 15 -10 0 -5 6 -10 13 -10 7 0 20 -9 30 -20 9 -11 22 -20 29 -20 9 0 10
3 2 8 -6 4 -16 17 -23 30 l-12 23 40 -21 c41 -21 58 -15 21 7 -10 7 -24 23
-31 35 -12 22 -12 22 12 5 13 -10 38 -26 54 -37 33 -21 70 -50 120 -92 23 -20
32 -23 32 -12 0 9 -20 31 -45 50 -34 26 -41 35 -29 40 14 5 14 8 -3 26 -10 11
-16 28 -13 37 4 14 3 14 -6 1 -9 -13 -12 -13 -23 -1 -10 10 -10 15 -1 18 7 2
10 10 7 18 -3 8 -12 11 -20 8 -8 -3 -14 0 -14 6 0 20 19 12 79 -34 32 -25 68
-45 79 -45 25 0 114 -78 105 -93 -3 -7 -2 -9 2 -4 5 4 19 -3 32 -15 13 -12 23
-17 23 -11 0 5 -11 20 -25 33 -13 12 -23 25 -22 29 1 3 0 6 -3 6 -12 0 -37 31
-32 39 3 5 0 6 -5 3 -6 -4 -17 1 -24 10 -12 14 -12 16 1 9 8 -4 6 1 -5 11 -11
10 -29 29 -40 43 -24 28 -11 22 60 -29 28 -19 44 -28 36 -18 -7 9 -10 17 -6
17 5 0 1 8 -7 18 -30 35 -28 42 5 22 31 -18 77 -60 66 -60 -2 0 23 -29 56 -65
34 -36 64 -65 68 -65 16 0 -26 60 -97 139 -42 46 -76 87 -76 92 0 14 16 11 30
-6 7 -8 22 -15 33 -15 11 0 32 -10 46 -22 14 -13 20 -16 14 -8 -15 17 -17 54
-3 45 6 -4 7 -11 4 -17 -5 -7 -2 -8 5 -3 9 5 0 20 -30 51 -23 24 -40 46 -37
50 9 8 65 -23 77 -43 6 -10 11 -14 11 -8 0 5 14 -6 31 -25 27 -29 32 -31 41
-17 11 21 -26 75 -61 88 -13 5 -21 12 -17 16 9 10 -15 34 -28 26 -6 -3 -8 -3
-4 2 4 4 3 16 -2 26 -7 12 -7 20 0 24 6 4 9 3 8 -2 -2 -4 2 -9 7 -11 18 -6 47
-36 106 -111 57 -71 71 -83 48 -39 -9 17 -8 24 6 34 14 10 15 16 4 36 -10 20
-8 19 21 -7 18 -16 29 -23 24 -15 -5 8 -9 23 -9 32 0 9 -9 27 -21 40 -50 59
-29 46 30 -17 36 -38 66 -65 66 -58 0 6 -4 15 -10 18 -14 9 -12 25 3 25 11 0
22 -12 73 -75 9 -11 3 3 -12 30 -15 28 -37 69 -49 92 -12 23 -36 62 -53 87
-17 25 -37 56 -43 68 -12 22 -12 22 12 6 13 -9 23 -24 22 -33 0 -10 4 -14 13
-11 8 3 24 -4 37 -17 12 -12 26 -21 30 -19 5 1 11 -7 14 -18 3 -11 9 -17 15
-14 5 3 5 11 0 17 -11 15 -23 47 -17 47 3 0 14 -18 25 -41 12 -23 24 -39 26
-36 3 3 -4 23 -15 46 -17 32 -19 45 -10 64 8 18 8 30 -2 48 -11 21 -10 22 3
12 8 -7 18 -10 21 -6 10 9 9 25 -1 19 -5 -3 -19 8 -32 25 -14 16 -30 29 -36
29 -7 0 -15 7 -18 16 -4 9 -2 13 5 8 7 -4 10 -1 7 6 -2 8 -13 18 -23 24 -21
12 -44 37 -45 49 0 13 31 7 36 -8 8 -21 130 -145 143 -145 6 0 11 -7 11 -15 0
-8 6 -12 13 -10 7 3 29 -21 51 -55 48 -72 61 -72 17 1 -18 28 -30 58 -27 66 3
8 1 11 -4 8 -6 -3 -10 -1 -10 4 0 19 -3 25 -26 63 -29 45 -29 47 -5 41 10 -2
18 -12 17 -21 0 -9 6 -17 14 -18 8 0 22 -2 31 -2 19 -2 69 -47 69 -62 0 -6 -4
-9 -8 -6 -4 2 -8 -4 -8 -15 0 -10 4 -19 8 -19 4 0 7 -5 5 -12 -1 -7 4 -12 11
-13 18 0 32 -27 27 -50 -3 -11 -2 -14 1 -7 5 10 9 10 22 0 12 -10 12 -7 -2 15
-18 27 -18 27 4 25 13 -2 25 3 27 10 3 6 -1 12 -9 12 -7 0 -22 17 -33 38 -11
20 -39 67 -62 104 -39 62 -40 66 -18 56 14 -6 25 -17 25 -23 0 -14 40 -52 40
-39 1 12 40 -35 40 -48 0 -5 -5 -6 -12 -2 -7 4 -8 3 -4 -5 4 -6 12 -9 17 -6 5
4 12 -1 15 -9 3 -9 10 -13 16 -10 5 3 3 11 -5 17 -20 17 -29 57 -11 50 15 -6
20 22 5 31 -5 3 -11 15 -14 26 -5 18 -3 19 10 8 14 -11 14 -9 -1 17 -9 17 -20
37 -26 45 -5 8 -20 41 -34 73 -31 70 -158 228 -258 319 -40 37 -93 86 -118
109 -25 23 -86 75 -137 116 -117 94 -498 494 -602 631 -19 26 -63 76 -97 112
-68 72 -143 159 -218 253 -26 34 -91 112 -143 174 -106 126 -177 214 -257 318
-29 39 -63 81 -75 95 -18 20 -20 26 -9 35 75 59 228 173 303 225 101 71 187
144 195 165 4 12 143 111 257 183 40 25 60 53 55 78 -3 15 28 41 53 46 11 1
25 7 30 11 6 4 42 29 81 55 138 91 310 233 297 245 -3 4 -18 0 -33 -8 -15 -8
-30 -12 -33 -9 -3 3 -15 -3 -27 -14 -19 -18 -71 -28 -69 -13 0 3 28 24 61 47
75 49 83 64 33 64 -23 0 -34 4 -29 11 3 6 15 9 25 6 11 -3 19 -1 19 3 0 4 10
6 23 3 21 -4 21 -4 2 8 -11 7 -31 13 -45 14 -27 2 -67 -25 -51 -34 5 -4 12
-20 16 -36 4 -19 3 -25 -2 -18 -7 10 -13 10 -29 -2 -32 -24 -51 -19 -26 8 26
27 31 58 6 33 -8 -9 -21 -16 -29 -16 -7 0 -21 -3 -31 -7 -12 -5 -15 -3 -9 6 5
10 2 11 -14 6 -12 -3 -21 -2 -21 4 0 5 9 13 20 16 24 8 26 21 5 29 -13 5 -13
8 2 23 21 21 83 25 83 6 0 -28 29 -9 120 79 52 50 86 85 76 77 -18 -13 -19
-12 -13 4 4 11 2 17 -8 17 -8 0 -15 5 -15 11 0 6 7 8 15 5 11 -4 15 0 13 11
-2 9 3 18 10 20 6 3 12 -3 12 -12 0 -9 5 -13 10 -10 8 5 7 11 0 21 -9 10 -1
25 39 67 39 41 48 56 39 65 -9 9 -9 12 1 12 7 0 10 4 7 8 -2 4 7 7 21 6 13 0
28 -6 33 -14 6 -9 10 -7 15 9 3 11 12 21 18 21 17 1 65 40 49 40 -7 0 -10 5
-7 10 3 6 -3 10 -14 10 -12 0 -21 4 -21 10 0 5 -7 7 -15 4 -21 -8 -19 -25 3
-18 9 4 4 -5 -13 -19 -22 -19 -34 -23 -47 -16 -13 7 -16 6 -12 -5 3 -9 -4 -16
-23 -21 -28 -7 -57 -27 -123 -84 -37 -32 -50 -38 -50 -21 0 6 4 10 8 10 4 0 8
11 8 25 0 17 -5 25 -18 25 -24 0 -23 17 3 31 16 8 20 8 14 -1 -5 -8 0 -7 14 2
12 7 21 16 21 20 0 4 11 18 24 31 18 18 28 21 35 14 20 -20 32 6 17 35 -11 21
-12 28 -1 32 7 2 16 1 21 -4 9 -8 84 34 84 48 0 5 -7 17 -16 28 -8 10 -13 13
-9 7 4 -8 0 -13 -9 -13 -25 0 -18 19 9 26 14 3 25 10 25 14 0 4 17 -8 37 -26
20 -19 42 -34 49 -34 15 0 25 48 10 53 -11 4 43 67 57 67 5 0 23 11 40 24 49
35 58 39 51 22 -4 -11 0 -16 10 -16 9 0 16 -7 16 -15 0 -8 4 -15 10 -15 5 0
-2 -11 -16 -25 -14 -14 -31 -25 -37 -25 -7 0 -29 -16 -48 -36 -29 -31 -30 -34
-9 -23 14 8 33 21 44 29 21 17 25 17 37 -2 7 -10 9 -10 9 0 0 6 10 12 23 11
14 0 17 -2 7 -6 -21 -8 -50 -34 -50 -46 0 -13 69 1 97 19 13 8 22 20 20 26 -1
6 9 14 23 18 14 3 31 18 38 33 11 22 20 27 50 27 35 -1 36 -2 18 -15 -16 -12
-17 -18 -8 -27 9 -9 12 -9 12 1 0 8 6 11 16 7 13 -5 15 -1 10 19 -4 16 -2 24
5 23 6 -2 14 3 17 11 3 9 0 11 -9 7 -8 -4 -1 4 15 19 20 18 32 23 40 16 9 -7
16 -7 24 1 8 8 15 8 27 -2 11 -9 13 -16 5 -24 -17 -17 -11 -27 9 -14 11 6 17
18 13 26 -3 10 -1 13 6 8 6 -4 21 -2 33 5 18 9 24 8 31 -5 6 -11 20 -14 48
-12 42 4 49 -3 25 -27 -8 -8 -11 -17 -8 -21 4 -3 -3 -6 -14 -6 -12 0 -23 4
-25 10 -1 5 -13 7 -26 3 -21 -5 -22 -7 -6 -24 9 -10 13 -23 9 -29 -5 -8 -12
-4 -22 10 -8 12 -21 19 -29 16 -8 -3 -14 0 -14 6 0 7 -5 5 -12 -4 -16 -19 -95
-31 -102 -14 -3 7 -5 7 -5 -2 -1 -7 -6 -10 -13 -6 -6 4 -8 3 -4 -4 3 -6 -2
-15 -11 -21 -48 -26 68 -40 147 -17 l55 15 -27 -22 c-17 -13 -26 -30 -24 -42
2 -11 -6 -31 -18 -44 -19 -22 -19 -24 -2 -17 10 3 34 2 52 -4 30 -10 38 -8 86
23 29 19 74 52 101 74 26 21 75 54 110 73 34 18 80 45 102 60 22 15 73 49 114
76 100 66 154 124 199 214 21 41 46 87 56 103 10 15 16 27 13 27 -2 0 -24 -29
-48 -65 -33 -50 -45 -62 -56 -54 -18 16 -16 38 6 82 22 43 13 50 -11 10 -26
-43 -153 -173 -169 -173 -8 0 -31 -9 -52 -20 -20 -11 -37 -16 -37 -10 0 5 5
10 12 10 21 0 128 121 128 145 0 12 3 38 7 56 l6 34 -21 -25 c-14 -16 -21 -20
-22 -10 0 8 -16 -1 -41 -25 l-41 -40 19 40 c11 22 23 53 27 68 6 27 2 24 -64
-32 -39 -34 -73 -61 -75 -61 -3 0 4 18 15 41 26 51 20 81 -10 54 -24 -22 -28
-1 -5 29 30 39 14 40 -23 1 -21 -22 -46 -47 -57 -55 -19 -15 -19 -14 -3 12 25
38 58 98 58 103 0 3 -7 5 -15 5 -9 0 -24 -20 -35 -45 -14 -32 -25 -45 -39 -45
-11 0 -23 5 -26 10 -3 6 -2 10 4 10 16 0 43 62 31 74 -7 7 -10 5 -10 -7 0 -9
-11 -24 -24 -33 -15 -9 -22 -21 -19 -30 3 -8 -1 -14 -10 -14 -9 0 -22 -2 -29
-5 -26 -10 -17 34 23 112 22 42 42 79 46 82 3 4 3 0 -2 -8 -5 -9 -4 -12 3 -7
12 7 84 138 79 143 -5 5 -67 -84 -67 -96 0 -5 -4 -13 -10 -16 -6 -3 -7 1 -4
12 4 15 3 14 -7 -2 -8 -11 -14 -22 -14 -25 -1 -17 -18 -27 -35 -23 -19 5 -20
7 -5 29 24 36 6 29 -32 -13 -18 -21 -33 -33 -33 -27 0 6 9 19 20 29 11 10 17
22 14 27 -3 5 0 15 6 23 6 8 9 18 7 22 -8 12 58 124 68 116 4 -5 5 -3 2 3 -3
6 3 25 13 42 11 17 17 38 14 46 -3 8 -1 24 6 35 23 44 -2 17 -66 -69 -36 -49
-72 -90 -80 -90 -9 0 -12 5 -9 10 10 16 -5 12 -23 -6 -12 -12 -17 -13 -20 -4
-3 7 -17 -1 -38 -21 -29 -28 -34 -30 -40 -15 -4 9 -13 15 -20 12 -8 -3 -14 1
-14 8 0 8 -9 12 -25 11 -21 -3 -23 0 -15 15 5 9 7 20 3 23 -3 4 0 13 7 22 10
12 10 15 -2 15 -8 0 -19 -5 -25 -11 -7 -7 -19 -9 -29 -5 -15 6 -13 11 17 42
19 19 27 33 19 30 -8 -2 -28 -7 -43 -10 -25 -6 -27 -5 -18 12 7 14 6 18 -9 18
-10 0 -17 -3 -14 -7 6 -10 -60 -49 -92 -55 -15 -3 -31 -7 -36 -10 -5 -3 -15
-1 -22 5 -9 8 -21 4 -46 -14 -36 -27 -50 -31 -50 -15 0 6 5 10 11 10 5 0 27
11 47 25 38 26 58 32 47 15 -3 -5 -3 -10 2 -10 14 1 38 24 41 40 1 10 -3 9
-14 -5 -11 -14 -18 -16 -21 -7 -7 19 -22 15 -74 -23 -27 -19 -56 -35 -64 -35
-18 0 -19 -12 -4 -27 8 -8 7 -13 -2 -19 -7 -4 -14 -3 -16 2 -4 12 -63 6 -63
-6 0 -4 7 -13 15 -20 10 -9 15 -9 15 -1 0 6 5 11 10 11 24 0 -25 -50 -66 -67
-25 -10 -42 -23 -40 -30 4 -10 -18 -23 -44 -28 -3 0 -15 -6 -26 -13 -12 -6
-24 -9 -26 -6 -9 8 -30 -25 -23 -36 8 -13 55 -13 55 0 0 13 60 43 68 35 4 -4
-4 -15 -18 -24 -58 -39 -78 -61 -73 -82 4 -12 0 -25 -8 -30 -11 -7 -11 -9 4
-10 30 -3 35 -4 43 -11 3 -4 -3 -6 -15 -3 -11 2 -21 0 -21 -6 0 -5 -5 -9 -11
-9 -5 0 -7 5 -4 10 3 6 1 10 -4 10 -6 0 -11 -7 -11 -17 0 -9 -3 -13 -7 -10 -3
4 -12 2 -19 -4 -11 -9 -16 -6 -22 11 -8 22 -8 22 -20 -4 -15 -34 -6 -56 24
-56 13 0 24 -4 24 -9 0 -13 -68 -60 -166 -115 -45 -25 -89 -57 -99 -72 -9 -14
-19 -23 -22 -20 -10 9 -11 66 -1 60 4 -3 13 7 18 22 6 15 13 24 17 21 3 -4 14
-2 24 4 14 7 19 6 19 -3 0 -7 5 -5 13 5 6 9 22 18 35 20 13 2 29 16 37 31 18
34 19 39 4 31 -6 -4 -16 0 -22 8 -11 14 -17 14 -51 2 -45 -16 -58 -31 -53 -62
3 -18 -3 -25 -29 -35 -18 -6 -31 -15 -29 -19 3 -4 -2 -12 -10 -19 -12 -10 -20
-9 -40 4 -21 14 -24 14 -19 1 4 -9 -1 -18 -12 -22 -11 -5 -19 -15 -19 -23 0
-15 -4 -16 -46 -19 -16 -1 -20 -6 -16 -21 5 -20 2 -22 -33 -22 -35 0 -41 2
-35 12 3 6 15 10 26 10 11 0 17 5 14 10 -3 6 -1 10 5 10 6 0 18 7 26 15 10 10
11 15 3 15 -9 0 -9 3 1 14 6 8 18 12 26 9 8 -3 14 0 14 7 0 6 4 9 9 6 5 -3 11
3 14 14 3 11 16 24 29 30 12 5 46 30 73 55 40 36 47 47 36 54 -12 8 -12 12 -2
25 8 9 21 16 30 16 14 0 14 -2 1 -10 -12 -8 -12 -10 2 -15 29 -11 59 13 56 44
-2 34 17 61 43 61 24 0 36 20 12 21 -16 0 -16 1 2 9 28 12 2 12 -30 0 -14 -5
-23 -14 -20 -20 3 -5 2 -10 -4 -10 -5 0 -23 -11 -39 -25 -29 -25 -76 -31 -68
-8 3 6 0 13 -5 15 -14 5 0 38 14 33 37 -11 77 -14 72 -5 -3 5 3 20 14 32 24
25 29 81 7 72 -8 -3 -12 -13 -9 -25 4 -12 0 -19 -9 -19 -10 0 -13 9 -10 33 3
25 12 39 35 52 30 18 31 18 45 -3 17 -25 57 -29 66 -7 8 22 55 42 64 28 8 -13
31 2 48 32 7 12 21 19 33 18 12 -2 21 2 21 7 0 6 9 10 20 10 11 0 23 7 26 15
4 8 13 15 21 15 8 0 29 11 47 25 18 14 37 25 43 25 14 0 54 36 47 42 -3 3 9
10 25 16 17 6 31 16 31 22 0 6 5 8 10 5 6 -3 10 -1 10 4 0 6 9 11 20 11 11 0
20 5 20 10 0 6 5 10 10 10 6 0 23 15 39 32 30 34 34 51 6 28 -9 -7 -19 -9 -23
-5 -4 4 -1 10 6 12 6 3 10 9 6 14 -8 13 -44 11 -44 -2 0 -6 -7 -9 -14 -6 -10
4 -13 1 -9 -9 3 -7 1 -14 -5 -14 -18 0 -6 29 21 50 46 37 31 47 -34 22 -14 -6
-40 -22 -58 -37 -23 -20 -35 -25 -43 -17 -11 11 23 52 53 64 9 4 19 18 21 32
6 32 0 34 -11 3z m-78 -104 c3 -5 -10 -26 -28 -47 l-33 -40 2 32 c3 38 45 77
59 55z m84 -30 c0 -22 -25 -53 -44 -53 -7 0 -13 -4 -13 -10 0 -5 -7 -10 -16
-10 -12 0 -10 6 10 21 14 11 26 27 26 34 0 11 18 28 36 35 0 0 1 -8 1 -17z
m-187 -53 c0 -5 8 -10 18 -10 9 0 24 -5 32 -10 11 -7 9 -8 -11 -6 -13 1 -30 6
-37 10 -20 12 -42 -1 -42 -25 0 -15 -5 -19 -15 -15 -8 3 -15 1 -15 -4 0 -14
-28 -1 -34 17 -9 22 3 36 20 22 12 -10 19 -8 35 9 21 23 49 29 49 12z m90 -20
c0 -5 -2 -10 -4 -10 -3 0 -8 5 -11 10 -3 6 -1 10 4 10 6 0 11 -4 11 -10z
m-205 -21 c4 -6 -2 -13 -13 -16 -11 -3 -18 -11 -16 -18 5 -12 -24 -30 -34 -21
-6 7 37 66 48 66 5 0 12 -5 15 -11z m40 -58 c3 -5 -4 -13 -16 -16 -12 -4 -18
-12 -15 -21 3 -7 0 -16 -6 -20 -7 -4 -8 -3 -4 4 12 20 -2 13 -29 -14 -14 -14
-30 -22 -35 -19 -5 3 -7 0 -5 -7 3 -8 -4 -24 -17 -37 -20 -22 -22 -23 -28 -6
-5 13 -9 15 -14 7 -4 -7 -5 -15 -3 -19 3 -5 -1 -14 -9 -21 -11 -10 -15 -6 -22
20 -7 26 -6 36 6 45 8 7 19 10 24 7 12 -8 77 34 114 73 32 34 48 40 59 24z
m-189 -62 c11 -18 -12 -32 -33 -20 -16 11 -16 11 5 6 23 -7 32 9 10 18 -10 4
-10 6 -1 6 6 1 15 -4 19 -10z m-3487 -23 c11 -7 21 -46 11 -46 -4 0 -19 9 -32
20 -14 10 -28 16 -32 13 -3 -3 -6 1 -6 11 0 12 6 15 25 12 13 -3 29 -7 34 -10z
m4430 -9 c0 -9 -2 -8 -6 1 -2 6 -10 9 -15 6 -7 -4 -8 -2 -4 5 9 13 26 5 25
-12z m-4495 -18 c12 -23 12 -28 2 -20 -12 11 -29 51 -21 51 2 0 10 -14 19 -31z
m4131 21 c-3 -5 -11 -10 -16 -10 -6 0 -7 5 -4 10 3 6 11 10 16 10 6 0 7 -4 4
-10z m165 -13 c0 -17 -29 -57 -41 -57 -15 0 -10 32 8 52 19 21 33 23 33 5z
m-442 -87 c-27 -17 -50 -30 -54 -30 -14 0 11 22 44 40 57 30 63 23 10 -10z
m145 -4 c4 -10 1 -13 -9 -9 -7 3 -14 0 -14 -7 0 -7 -6 -10 -14 -7 -9 4 -18 -4
-24 -23 -6 -15 -16 -27 -24 -27 -7 1 -14 -2 -15 -7 -2 -12 -33 -29 -40 -22 -3
3 0 12 7 21 11 13 8 15 -16 15 -24 1 -26 2 -12 11 12 6 24 6 36 0 12 -6 23 -5
37 5 16 12 17 14 2 14 -9 0 -17 4 -17 10 0 14 39 32 56 26 8 -3 14 -1 14 4 0
16 27 12 33 -4z m212 -5 c-8 -13 -35 -15 -35 -2 0 5 8 11 18 13 21 5 26 2 17
-11z m-4219 -32 l29 -31 -40 26 c-50 34 -52 36 -34 36 9 0 28 -14 45 -31z
m4177 -5 c-2 -7 -10 -11 -18 -8 -7 3 -15 -2 -18 -10 -4 -9 -13 -12 -27 -9 -15
4 -21 1 -19 -8 3 -19 -11 -49 -23 -49 -14 0 -148 -81 -148 -90 0 -4 -11 -10
-24 -12 -19 -4 -22 -1 -18 16 4 15 7 17 10 6 3 -9 10 -1 17 20 8 25 22 40 49
53 20 10 39 24 42 32 4 8 12 15 20 15 8 0 14 5 14 11 0 6 6 9 13 6 14 -5 102
37 113 54 9 15 24 -9 17 -27z m177 -28 c0 -3 -4 -8 -10 -11 -5 -3 -10 -1 -10
4 0 6 5 11 10 11 6 0 10 -2 10 -4z m-75 -61 c-46 -40 -93 -49 -75 -15 8 14 17
19 29 15 13 -4 20 1 24 15 4 14 13 20 34 20 l28 0 -40 -35z m-1005 15 c0 -5
-5 -10 -11 -10 -5 0 -7 5 -4 10 3 6 8 10 11 10 2 0 4 -4 4 -10z m470 -30 c0
-5 -7 -7 -15 -4 -8 4 -15 8 -15 10 0 2 7 4 15 4 8 0 15 -4 15 -10z m395 -50
c4 0 3 5 0 10 -7 12 12 12 40 0 17 -7 11 -12 -12 -9 -3 0 -10 -6 -15 -15 -18
-31 -161 -113 -157 -89 5 27 -3 44 -18 41 -10 -2 -21 -7 -25 -13 -5 -6 -12 -4
-18 5 -15 24 15 48 39 33 15 -10 21 -10 25 0 3 9 7 9 14 -2 12 -17 32 -6 32
19 0 11 15 26 38 38 36 19 37 19 44 1 4 -11 10 -19 13 -19z m-812 6 c3 -8 -1
-20 -9 -26 -12 -10 -14 -8 -14 14 0 28 14 35 23 12z m952 -6 c3 -5 1 -10 -4
-10 -6 0 -11 5 -11 10 0 6 2 10 4 10 3 0 8 -4 11 -10z m-555 -10 c0 -5 -8 -10
-17 -10 -15 0 -16 2 -3 10 19 12 20 12 20 0z m530 0 c0 -14 -24 -23 -47 -17
-15 3 -14 6 7 15 32 14 40 14 40 2z m-4790 -10 c0 -5 -2 -10 -4 -10 -3 0 -8 5
-11 10 -3 6 -1 10 4 10 6 0 11 -4 11 -10z m4160 -10 c0 -5 -5 -10 -11 -10 -5
0 -7 5 -4 10 3 6 8 10 11 10 2 0 4 -4 4 -10z m545 -30 c-10 -11 -26 -20 -37
-20 -10 0 -18 -6 -18 -14 0 -8 -9 -17 -19 -21 -11 -3 -47 -27 -80 -53 -33 -26
-81 -62 -106 -81 -25 -18 -45 -39 -45 -45 0 -7 -19 -20 -42 -30 -75 -30 -72
-28 -211 -148 -24 -21 -28 -27 -14 -28 9 0 17 -5 17 -11 0 -6 -9 -8 -22 -4
-21 6 -22 5 -5 -8 23 -19 22 -24 -13 -63 -26 -30 -30 -32 -39 -16 -9 15 -13
15 -31 4 -15 -9 -25 -10 -33 -3 -9 6 -20 4 -37 -9 -14 -11 -19 -20 -12 -20 19
0 14 -30 -5 -31 -10 -1 -21 -1 -25 -1 -3 1 -9 -5 -12 -13 -3 -9 0 -15 8 -15 9
0 12 -7 9 -19 -4 -14 -13 -18 -40 -16 -19 1 -39 8 -44 16 -7 11 -9 8 -9 -8 0
-13 6 -23 14 -23 8 0 22 -7 31 -16 15 -15 17 -15 34 0 24 22 34 20 28 -5 -5
-19 -4 -20 18 -5 33 22 23 -3 -12 -28 -21 -15 -27 -16 -34 -5 -14 22 -31 -9
-18 -33 5 -10 8 -18 7 -19 -20 -5 -45 -10 -55 -11 -9 -1 -10 -5 -2 -15 9 -10
8 -13 -2 -13 -8 0 -32 -3 -53 -7 l-40 -6 22 36 c17 29 18 37 7 37 -8 0 -15 5
-15 10 0 6 -8 10 -17 10 -15 0 -15 2 2 14 11 8 25 12 32 9 7 -3 13 0 13 5 0 6
-9 14 -20 17 -26 8 -26 29 0 22 17 -4 20 -1 18 16 -2 15 5 25 25 35 34 16 39
57 6 47 -19 -6 -20 -5 -8 8 8 8 18 14 24 14 5 -1 9 5 10 13 0 21 29 24 48 6
19 -19 29 -1 16 26 -6 11 -5 19 3 24 7 4 8 3 4 -4 -4 -7 -2 -12 3 -12 11 0 15
26 12 63 -1 9 4 17 13 17 9 0 16 -4 16 -10 0 -5 5 -10 10 -10 6 0 10 9 10 20
0 14 -5 18 -17 13 -15 -5 -16 -3 -6 7 10 11 15 11 30 -1 10 -7 15 -9 11 -5 -4
5 -2 16 5 24 8 11 8 13 0 9 -8 -5 -8 -1 0 18 7 14 18 25 25 25 9 0 10 -5 3
-19 -8 -15 -7 -20 5 -25 9 -3 14 -12 11 -20 -3 -8 2 -16 14 -19 13 -4 17 -10
13 -22 -6 -16 -5 -16 14 1 12 10 22 24 22 30 0 7 6 14 13 17 9 3 9 9 0 25 -8
13 -9 23 -3 27 6 3 10 -2 10 -11 0 -16 1 -16 18 -1 10 10 24 17 30 17 6 0 9 7
5 16 -4 12 0 14 19 9 17 -4 29 0 43 16 15 16 16 23 7 26 -6 3 -10 9 -6 14 3 5
0 9 -6 9 -6 0 -9 4 -5 9 3 5 1 12 -4 15 -5 4 -8 -5 -7 -18 3 -28 -21 -44 -31
-20 -5 13 -8 13 -25 -2 -17 -17 -20 -17 -35 -1 -14 14 -15 19 -4 29 11 10 14
10 18 1 7 -19 23 -16 23 5 0 14 2 15 10 2 8 -12 11 -11 16 8 4 13 12 21 19 19
6 -3 17 4 23 14 13 20 52 27 52 9 0 -5 5 -10 11 -10 6 0 8 9 4 20 -4 14 -2 20
8 20 20 0 67 39 67 55 0 8 -7 11 -20 8 -30 -8 -24 3 15 26 27 15 35 17 35 6 0
-7 -6 -16 -12 -18 -8 -4 -7 -6 3 -6 9 -1 20 6 23 14 4 12 10 13 24 6 10 -6 30
-8 43 -5 22 5 23 4 7 -9 -25 -20 -23 -23 15 -25 27 -2 36 2 45 22 6 15 34 36
67 52 30 15 60 34 67 41 6 7 13 11 16 8 3 -3 -3 -14 -13 -25z m612 8 c-3 -8
-6 -5 -6 6 -1 11 2 17 5 13 3 -3 4 -12 1 -19z m-5173 -75 c40 -45 65 -81 62
-90 -3 -8 -1 -11 5 -8 5 4 17 4 26 1 13 -5 13 -9 2 -22 -11 -14 -10 -19 6 -33
32 -26 49 -51 36 -51 -19 0 -90 82 -96 111 -6 26 -48 54 -65 44 -5 -3 -12 0
-16 6 -4 8 -3 9 4 5 32 -20 -9 50 -47 81 -24 20 -22 47 3 37 8 -3 44 -39 80
-81z m3499 47 c4 -17 3 -19 -9 -9 -11 9 -17 9 -28 0 -10 -9 -16 -9 -21 -1 -8
13 -8 13 20 28 24 12 31 9 38 -18z m67 -12 c7 -11 5 -18 -6 -22 -8 -3 -12 -2
-9 4 3 6 1 10 -4 10 -6 0 -11 12 -11 28 0 28 5 25 30 -20z m676 26 c-3 -9 -6
-19 -6 -23 0 -4 -18 -17 -40 -30 -32 -18 -40 -19 -40 -7 0 25 11 46 25 46 7 0
15 7 19 15 3 8 15 15 27 15 15 0 19 -4 15 -16z m67 -8 c4 -10 1 -13 -8 -9 -8
3 -12 9 -9 14 7 12 11 11 17 -5z m-543 -6 c0 -5 -4 -10 -10 -10 -5 0 -10 5
-10 10 0 6 5 10 10 10 6 0 10 -4 10 -10z m367 -22 c-3 -8 -6 -5 -6 6 -1 11 2
17 5 13 3 -3 4 -12 1 -19z m-846 -27 c-12 -12 -21 -16 -21 -10 0 12 32 40 38
34 2 -2 -6 -13 -17 -24z m287 -9 c-3 -10 1 -23 9 -31 15 -14 13 -33 -4 -38 -6
-2 -10 4 -9 14 1 13 -6 18 -22 17 -16 0 -21 4 -18 13 3 8 1 11 -4 8 -6 -3 -10
-2 -10 3 0 9 36 30 54 31 4 1 6 -7 4 -17z m567 -1 c-3 -6 -11 -8 -17 -5 -6 4
-5 9 3 15 16 10 23 4 14 -10z m-4395 -53 c16 -22 30 -48 30 -56 0 -16 -51 50
-63 81 -11 28 1 20 33 -25z m4275 23 c-3 -5 -1 -12 5 -16 5 -3 10 -1 10 5 0 6
5 8 11 5 6 -4 8 -9 5 -12 -2 -3 -1 -16 4 -28 7 -19 5 -25 -10 -30 -11 -4 -20
-10 -20 -15 0 -5 -15 -11 -32 -15 -55 -11 -68 -16 -68 -26 0 -5 9 -9 21 -9 11
0 17 -4 14 -10 -3 -5 -3 -15 1 -21 4 -8 9 -7 15 2 6 10 11 11 19 3 18 -18 -17
-39 -60 -35 -13 1 -13 2 0 11 13 9 13 11 0 20 -8 5 -11 10 -5 10 5 0 4 5 -3
12 -9 9 -15 8 -24 -5 -9 -11 -18 -14 -27 -8 -11 7 -9 13 8 30 11 11 28 21 36
21 8 0 14 3 13 8 -4 10 34 52 47 52 5 0 3 -5 -5 -10 -9 -6 -10 -10 -3 -10 24
0 43 13 43 29 0 13 -2 14 -9 2 -8 -12 -12 -12 -25 -2 -9 8 -16 21 -16 30 1 14
2 14 11 -2 12 -20 31 -13 22 8 -3 10 1 15 12 15 9 0 14 -4 10 -9z m845 4 c0
-2 -10 -9 -22 -15 -22 -11 -22 -10 -4 4 21 17 26 19 26 11z m-1350 -27 c0 -13
-12 -31 -28 -42 l-27 -19 23 24 c22 25 30 45 13 35 -5 -3 -14 1 -21 9 -11 13
-8 15 14 15 20 0 26 -5 26 -22z m1646 -15 c-2 -19 -13 -32 -34 -43 -17 -8 -30
-19 -28 -25 4 -14 -25 -34 -51 -35 -13 0 -23 -4 -23 -10 0 -5 -11 -10 -24 -10
-14 0 -28 -5 -31 -10 -8 -13 20 -42 30 -32 5 4 5 2 1 -5 -3 -6 -20 -11 -36
-11 -16 1 -27 5 -24 10 3 4 0 8 -7 8 -19 0 110 119 136 126 17 4 24 12 22 27
-2 18 5 23 33 28 19 4 36 7 37 8 1 0 0 -11 -1 -26z m-1895 -6 c-10 -9 -11 -8
-5 6 3 10 9 15 12 12 3 -3 0 -11 -7 -18z m819 3 c0 -5 -5 -10 -11 -10 -5 0 -7
5 -4 10 3 6 8 10 11 10 2 0 4 -4 4 -10z m-714 -15 c9 8 21 15 29 15 22 0 26
-30 5 -47 -25 -21 -26 -35 -2 -26 15 6 15 5 3 -10 -18 -22 -19 -22 -36 16 -8
17 -13 24 -11 15 3 -10 0 -20 -5 -24 -6 -3 -9 -17 -7 -29 4 -17 1 -22 -11 -20
-9 2 -21 4 -28 4 -7 1 -10 8 -7 16 4 8 1 15 -5 15 -6 0 -11 5 -11 10 0 6 11
10 25 10 29 0 28 0 15 35 -6 15 -6 24 -1 20 5 -3 13 0 18 7 5 10 8 8 11 -4 3
-16 5 -16 18 -3z m1420 -3 c-3 -5 -16 -12 -28 -15 l-23 -6 24 20 c23 19 39 20
27 1z m-1482 -20 c3 -5 -1 -9 -9 -9 -8 0 -15 4 -15 9 0 4 4 8 9 8 6 0 12 -4
15 -8z m436 -43 c0 -13 -54 -38 -88 -41 -17 -1 -29 -5 -27 -8 2 -3 -9 -18 -25
-33 -27 -25 -30 -26 -39 -10 -8 14 -12 16 -22 6 -11 -11 -10 -13 3 -13 22 0
33 -37 17 -56 -15 -18 -29 -2 -29 34 0 13 -4 20 -10 17 -5 -3 -10 -2 -10 3 0
5 11 15 25 22 14 7 25 17 25 22 0 4 5 8 11 8 5 0 7 -4 4 -10 -9 -15 11 -12 24
4 9 11 9 16 0 21 -8 6 -7 10 5 17 9 5 14 13 11 19 -4 5 6 9 22 9 l28 0 -25
-19 c-22 -17 -22 -19 -5 -18 25 2 44 18 38 32 -2 7 9 10 32 7 19 -2 35 -8 35
-13z m605 11 c-3 -5 -11 -10 -16 -10 -6 0 -7 5 -4 10 3 6 11 10 16 10 6 0 7
-4 4 -10z m575 -10 c0 -5 8 -10 18 -11 12 0 10 -3 -7 -10 -25 -10 -46 5 -35
23 7 11 24 10 24 -2z m-1665 -24 c-11 -8 -23 -12 -28 -9 -13 8 3 23 26 23 20
0 20 0 2 -14z m483 -21 c-6 -13 -15 -22 -20 -19 -5 3 -2 15 8 25 23 25 26 24
12 -6z m846 11 c-3 -7 2 -16 12 -20 13 -5 14 -9 4 -21 -6 -8 -9 -18 -6 -23 3
-6 -9 -15 -27 -23 -30 -12 -67 -41 -67 -54 0 -3 6 -5 14 -5 8 0 18 -5 22 -12
4 -6 3 -8 -4 -4 -5 3 -12 2 -14 -4 -2 -6 -14 -4 -31 5 -16 8 -31 14 -35 14
-23 -4 -42 2 -37 11 4 6 10 8 15 5 11 -7 50 16 50 28 0 4 -6 5 -12 2 -7 -4 -4
1 6 9 15 12 16 16 5 16 -8 0 -20 -5 -26 -11 -9 -9 -11 -7 -7 9 4 13 17 22 40
27 19 3 34 10 34 14 0 5 7 11 14 14 12 5 13 1 6 -16 -4 -12 -13 -21 -18 -20
-6 1 -13 -4 -16 -12 -6 -16 5 -20 18 -7 4 4 13 7 19 7 7 0 11 8 11 18 -1 9 3
17 8 17 6 0 8 6 5 14 -3 7 0 19 6 25 15 15 17 14 11 -3z m514 0 c-7 -8 -15
-12 -17 -11 -5 6 10 25 20 25 5 0 4 -6 -3 -14z m-1248 -11 c0 -8 -7 -15 -15
-15 -9 0 -12 6 -9 15 4 8 10 15 15 15 5 0 9 -7 9 -15z m420 10 c0 -8 -62 -37
-68 -31 -8 9 30 35 51 36 9 0 17 -2 17 -5z m-1011 -46 c-8 -5 -17 -9 -21 -9
-12 0 -9 25 4 38 9 9 14 9 21 -4 6 -11 5 -19 -4 -25z m136 31 c3 -5 -1 -10 -9
-10 -9 0 -16 5 -16 10 0 6 4 10 9 10 6 0 13 -4 16 -10z m-3225 -4 c0 -11 -19
-15 -25 -6 -3 5 1 10 9 10 9 0 16 -2 16 -4z m3875 -6 c3 -5 -1 -10 -9 -10 -9
0 -16 5 -16 10 0 6 4 10 9 10 6 0 13 -4 16 -10z m-28 -36 c-9 -9 -28 6 -21 18
4 6 10 6 17 -1 6 -6 8 -13 4 -17z m-736 -5 c-13 -11 -26 -17 -29 -14 -7 6 29
34 43 34 6 0 -1 -9 -14 -20z m86 1 c-8 -30 11 -35 38 -10 14 13 31 20 39 17
22 -9 20 -28 -1 -21 -13 4 -14 3 -5 -3 10 -8 10 -12 -3 -23 -11 -9 -15 -9 -15
-1 0 7 -4 9 -10 6 -12 -7 -14 -26 -2 -24 4 1 16 1 27 0 15 -1 16 -4 7 -13 -8
-8 -15 -9 -20 -3 -10 14 -39 17 -47 5 -12 -19 -22 -10 -17 15 3 18 -1 30 -14
40 -18 13 -18 14 -1 15 9 0 17 5 17 10 0 6 3 10 6 10 4 0 4 -9 1 -20z m353 10
c0 -6 10 -5 25 2 38 17 44 0 10 -31 -17 -15 -29 -34 -27 -44 2 -9 -3 -19 -10
-22 -8 -3 -14 -17 -13 -32 0 -30 32 -47 54 -29 12 9 12 8 0 -11 -8 -13 -24
-23 -36 -23 -14 0 -23 -6 -23 -15 0 -8 -5 -15 -10 -15 -24 0 -51 -37 -46 -64
3 -18 0 -26 -10 -26 -20 0 -30 30 -13 41 10 6 8 9 -10 9 -17 0 -22 -4 -17 -16
6 -15 4 -15 -10 -3 -10 8 -19 13 -21 12 -8 -7 -24 -2 -19 6 3 4 -6 13 -20 20
-15 6 -23 7 -19 1 3 -5 1 -10 -6 -10 -6 0 -18 -8 -25 -17 -7 -10 -16 -15 -20
-11 -4 4 -1 15 7 24 11 14 10 15 -7 12 -11 -2 -18 2 -16 10 1 7 -2 21 -7 31
-8 14 -5 23 13 40 19 18 23 28 17 49 -15 50 -2 83 24 62 13 -11 15 -10 9 6 -4
14 1 11 20 -9 15 -16 24 -32 21 -37 -3 -5 -1 -11 4 -14 5 -3 7 -15 4 -26 -3
-11 0 -20 6 -20 6 0 11 4 11 10 0 5 6 7 14 4 8 -3 19 3 26 15 6 12 17 21 25
21 15 0 45 27 45 41 0 14 -21 11 -39 -5 -9 -8 -22 -12 -28 -8 -9 6 -5 16 13
35 29 31 67 37 62 10 -2 -12 2 -17 12 -14 8 2 21 4 29 4 9 0 7 6 -7 18 -26 20
-28 29 -7 29 8 0 15 -4 15 -10z m160 0 c0 -5 -5 -10 -11 -10 -5 0 -7 5 -4 10
3 6 8 10 11 10 2 0 4 -4 4 -10z m1021 -9 c-13 -23 -52 -36 -44 -14 3 8 12 12
19 9 8 -3 13 -2 13 2 -3 15 1 22 11 22 7 0 7 -6 1 -19z m-3985 -16 c3 -14 10
-22 15 -19 5 3 6 -2 2 -12 -5 -14 -3 -15 16 -4 29 15 51 6 51 -20 0 -12 5 -18
10 -15 6 3 10 -3 10 -13 0 -11 7 -25 15 -32 17 -14 21 -35 5 -25 -21 13 -8
-15 25 -55 38 -45 40 -50 25 -50 -5 0 -10 6 -10 13 0 7 -20 33 -45 58 -75 73
-100 110 -84 121 10 7 8 8 -8 3 -16 -4 -23 -1 -28 17 -4 13 -17 31 -29 40
l-21 18 22 0 c16 0 25 -8 29 -25z m2307 11 c3 -8 -2 -16 -13 -19 -21 -5 -36
19 -17 27 20 8 25 7 30 -8z m1091 -16 c-19 -19 -31 -25 -35 -18 -8 12 28 47
49 48 8 0 2 -13 -14 -30z m-4210 -43 c9 -4 16 -13 16 -22 0 -12 -4 -11 -19 4
-24 24 -41 55 -41 73 1 7 7 -1 14 -18 8 -17 21 -34 30 -37z m3048 40 c-6 -7
-9 -24 -6 -38 2 -13 1 -17 -2 -9 -4 8 -12 18 -17 22 -12 7 9 38 25 38 7 0 6
-5 0 -13z m708 9 c0 -3 -4 -8 -10 -11 -5 -3 -10 -1 -10 4 0 6 5 11 10 11 6 0
10 -2 10 -4z m1210 -6 c0 -5 -8 -10 -17 -10 -15 0 -16 2 -3 10 19 12 20 12 20
0z m-5066 -21 c-8 -13 -21 -11 -27 5 -4 10 0 12 14 9 10 -3 16 -9 13 -14z
m4726 17 c0 -2 -7 -6 -15 -10 -8 -3 -15 -1 -15 4 0 6 7 10 15 10 8 0 15 -2 15
-4z m-1550 -20 c0 -3 -4 -8 -10 -11 -5 -3 -10 -1 -10 4 0 6 5 11 10 11 6 0 10
-2 10 -4z m916 -11 c-26 -19 -42 -19 -26 0 7 8 20 15 29 15 13 -1 13 -3 -3
-15z m359 5 c-3 -5 -11 -10 -16 -10 -6 0 -7 5 -4 10 3 6 11 10 16 10 6 0 7 -4
4 -10z m-74 -23 c-10 -9 -11 -8 -5 6 3 10 9 15 12 12 3 -3 0 -11 -7 -18z
m-151 -12 c-7 -9 -15 -13 -17 -11 -7 7 7 26 19 26 6 0 6 -6 -2 -15z m-152 -10
c9 -9 -10 -23 -37 -27 -33 -5 -47 12 -28 31 10 10 54 7 65 -4z m82 -14 c0 -13
-28 -22 -35 -11 -3 4 1 11 7 13 20 8 28 8 28 -2z m-1256 -38 c-1 -20 -6 -39
-13 -41 -6 -2 -11 1 -11 7 0 6 -4 11 -10 11 -5 0 -7 -6 -4 -14 6 -17 -12 -56
-27 -56 -11 0 -1 49 15 69 6 7 11 21 11 30 0 9 5 16 12 16 6 0 15 3 19 8 4 4
8 7 8 7 1 0 1 -17 0 -37z m536 18 c0 -5 -7 -12 -16 -15 -22 -9 -24 -8 -24 9 0
8 9 15 20 15 11 0 20 -4 20 -9z m948 -26 c-32 -30 -43 -32 -26 -6 7 11 16 17
20 15 4 -3 8 0 8 5 0 6 6 11 12 11 7 0 1 -11 -14 -25z m-998 5 c0 -5 -2 -10
-4 -10 -3 0 -8 5 -11 10 -3 6 -1 10 4 10 6 0 11 -4 11 -10z m-203 -53 c-2 -7
-8 -12 -13 -12 -19 -1 -54 -26 -49 -36 4 -5 -2 -9 -11 -9 -10 0 -26 -8 -36
-17 -18 -16 -18 -16 -12 0 3 9 10 17 16 17 5 0 6 5 3 10 -3 6 1 10 9 10 8 0
29 14 46 30 29 29 56 32 47 7z m839 -2 c2 -21 -2 -25 -16 -20 -26 8 -69 -31
-63 -56 3 -12 0 -19 -8 -20 -8 -1 -24 -3 -36 -4 -14 -1 -20 2 -16 11 3 8 9 14
14 14 5 0 31 23 58 50 27 28 52 50 57 50 5 0 10 -11 10 -25z m-1093 -9 c3 -7
-2 -24 -10 -36 -14 -20 -17 -20 -25 -7 -5 11 -4 24 4 37 15 23 24 25 31 6z
m487 10 c0 -2 -7 -9 -15 -16 -13 -11 -14 -10 -9 4 5 14 24 23 24 12z m-103
-23 c-9 -9 -19 -14 -23 -11 -10 10 6 28 24 28 15 0 15 -1 -1 -17z m537 -14
c-3 -5 -10 -7 -15 -3 -5 3 -7 10 -3 15 3 5 10 7 15 3 5 -3 7 -10 3 -15z m-437
-11 c-3 -8 -6 -5 -6 6 -1 11 2 17 5 13 3 -3 4 -12 1 -19z m-127 -8 c-20 -13
-33 -13 -25 0 3 6 14 10 23 10 15 0 15 -2 2 -10z m55 0 c3 -5 -3 -10 -15 -10
-12 0 -18 5 -15 10 3 6 10 10 15 10 5 0 12 -4 15 -10z m-645 -24 c0 -8 -9 -18
-20 -21 -11 -4 -18 -11 -15 -16 4 -5 1 -9 -4 -9 -17 0 -13 11 11 37 25 27 28
28 28 9z m170 0 c0 -11 -19 -15 -25 -6 -3 5 1 10 9 10 9 0 16 -2 16 -4z m654
-54 c-1 -12 -7 -29 -14 -37 -9 -10 -7 -16 7 -24 17 -9 17 -11 -2 -25 -25 -19
-36 -20 -29 -2 3 8 1 17 -5 20 -6 4 -8 20 -4 38 4 22 3 29 -5 24 -21 -12 -13
16 9 35 25 22 47 8 43 -29z m-477 -1 c-9 -11 -9 -15 0 -18 16 -6 5 -33 -14
-33 -8 0 -12 4 -8 9 11 20 -14 20 -38 1 -25 -20 -48 -25 -60 -14 -10 10 35 46
49 40 6 -2 24 9 40 25 20 21 30 26 35 17 4 -7 2 -19 -4 -27z m505 4 c3 -16 1
-25 -7 -25 -8 0 -10 9 -7 25 2 14 6 25 7 25 1 0 5 -11 7 -25z m-755 -18 c6 -4
14 -2 16 3 3 6 4 5 3 -2 -2 -7 -10 -11 -17 -9 -8 2 -24 3 -36 3 -13 0 -23 5
-23 10 0 10 38 7 57 -5z m218 -27 c-3 -5 -12 -10 -18 -10 -7 0 -6 4 3 10 19
12 23 12 15 0z m585 0 c0 -5 -7 -10 -16 -10 -8 0 -12 5 -9 10 3 6 10 10 16 10
5 0 9 -4 9 -10z m-670 -27 c0 -16 -19 -37 -26 -30 -4 4 -16 -1 -27 -10 -19
-17 -20 -17 -8 4 15 30 61 56 61 36z m83 -29 c-2 -6 1 -15 8 -20 8 -4 10 -3 5
4 -5 8 1 12 16 11 13 0 17 -3 11 -6 -7 -2 -13 -9 -13 -14 0 -6 5 -7 10 -4 6 3
11 1 11 -4 5 -36 30 -101 40 -101 5 0 9 -4 9 -10 0 -19 -19 -10 -26 12 -6 21
-7 20 -19 -8 -13 -28 -13 -28 -13 -4 1 14 -2 35 -6 48 -5 14 -3 22 5 22 9 0 9
3 -1 14 -6 8 -18 12 -25 9 -15 -5 -16 -24 -1 -35 5 -3 2 -14 -7 -23 -23 -23
-21 -28 8 -21 24 6 24 6 8 -23 -10 -16 -23 -27 -30 -24 -8 3 -13 -2 -13 -14 0
-10 -5 -24 -11 -30 -15 -15 -39 -5 -39 16 0 13 2 13 9 2 7 -11 11 -9 21 9 6
12 9 24 6 28 -3 3 -6 -1 -6 -8 0 -11 -3 -11 -11 -3 -17 17 -17 93 -1 93 7 0
10 5 7 10 -9 15 5 51 17 44 6 -4 8 -2 5 4 -4 5 -16 8 -27 5 -22 -6 -23 -3 -14
21 5 13 10 13 27 4 21 -11 21 -10 7 7 -8 10 -10 16 -3 12 6 -4 15 -2 19 4 9
14 24 -9 17 -27z m237 18 c0 -4 -9 -13 -20 -20 -22 -13 -23 -12 -14 12 6 16
34 23 34 8z m-3170 -77 c9 -10 9 -15 1 -15 -6 0 -11 4 -11 9 0 5 -11 19 -25
32 -29 28 -31 36 -7 41 12 2 19 -5 23 -24 4 -15 12 -35 19 -43z m3184 31 c-9
-15 -21 -23 -30 -19 -13 5 -12 8 3 24 28 28 47 24 27 -5z m36 -1 c-7 -9 -15
-13 -17 -11 -7 7 7 26 19 26 6 0 6 -6 -2 -15z m65 5 c-3 -5 2 -10 12 -10 17
-1 17 -1 0 -11 -10 -6 -21 -8 -24 -5 -6 6 4 36 12 36 4 0 3 -4 0 -10z m-750
-10 c4 -6 11 -8 16 -5 5 4 9 1 9 -4 0 -14 -17 -14 -25 -1 -5 8 -11 7 -20 0
-16 -13 -39 -4 -30 11 8 12 42 12 50 -1z m225 -1 c0 8 3 12 6 9 6 -7 -16 -49
-31 -60 -5 -4 -16 -1 -24 5 -12 10 -13 9 -6 -3 6 -12 5 -13 -6 -2 -11 10 -9
17 16 37 21 19 31 22 37 13 6 -10 8 -10 8 1z m700 -4 c0 -8 -7 -15 -15 -15
-16 0 -20 12 -8 23 11 12 23 8 23 -8z m-200 1 c0 -2 -7 -7 -16 -10 -8 -3 -12
-2 -9 4 6 10 25 14 25 6z m471 -5 c-20 -13 4 -24 27 -12 32 17 19 -34 -16 -64
-17 -14 -31 -32 -29 -38 1 -7 -4 -11 -10 -9 -7 1 -13 -5 -13 -13 0 -9 6 -15
13 -14 29 4 38 -2 35 -23 -6 -42 -15 -48 -48 -31 -17 8 -30 19 -30 25 0 6 -8
4 -17 -4 -10 -9 -23 -14 -29 -11 -13 4 -27 -24 -18 -38 3 -5 -4 -9 -16 -9 -26
0 -54 -14 -102 -53 -28 -22 -40 -27 -55 -19 -13 7 -22 6 -30 -3 -10 -10 -9
-14 3 -19 8 -3 13 -10 9 -15 -8 -14 -35 -2 -35 16 0 8 -4 12 -9 8 -14 -8 -24
13 -16 33 6 15 8 15 16 -3 7 -15 7 -11 3 13 -5 30 1 38 29 33 4 0 7 2 7 6 0 5
12 9 27 10 16 1 21 -2 13 -7 -14 -9 -5 -30 13 -30 7 0 13 14 14 31 2 23 14 42
45 70 42 37 81 51 76 27 -2 -6 5 -14 15 -16 11 -2 17 3 17 13 0 9 4 14 9 11
12 -8 8 27 -4 37 -12 8 14 29 27 21 4 -3 8 0 8 7 0 16 60 79 74 79 6 0 5 -4
-3 -9z m-546 -68 c7 -31 -16 -53 -26 -25 -4 9 -5 20 -3 23 2 3 -10 5 -26 4
-34 -2 -40 11 -9 20 12 4 18 12 15 21 -4 11 -1 11 18 -1 13 -9 27 -28 31 -42z
m329 22 c-4 -8 -10 -12 -15 -9 -11 6 -2 24 11 24 5 0 7 -7 4 -15z m-729 -4 c6
-11 -44 -61 -62 -61 -9 0 -10 -7 -3 -26 6 -14 8 -29 6 -33 -5 -7 28 -41 40
-41 3 0 15 12 27 26 29 33 55 25 49 -16 -4 -28 -13 -34 -49 -33 -7 1 -13 -3
-13 -9 0 -19 -39 -50 -55 -44 -9 3 -14 2 -11 -2 2 -4 -3 -16 -11 -27 -14 -18
-15 -18 -9 -2 3 10 6 25 6 33 0 8 6 14 14 14 8 0 16 7 20 15 7 19 -3 19 -28 0
-24 -18 -47 -20 -26 -2 39 33 48 98 15 111 -16 6 -28 -24 -20 -47 4 -10 -3
-21 -22 -32 -16 -9 -36 -30 -46 -47 -13 -23 -20 -28 -31 -19 -7 6 -16 8 -19 5
-4 -4 -1 5 6 19 10 22 13 24 19 9 5 -12 7 -9 7 11 1 18 5 26 12 21 7 -4 9 0 5
12 -4 13 1 24 15 32 12 8 18 9 14 3 -3 -6 -4 -11 -1 -11 2 0 12 -3 20 -6 13
-5 15 -2 7 17 -5 13 -14 23 -20 22 -6 -2 -11 4 -11 12 0 9 6 15 13 14 24 -3
52 13 71 38 11 15 14 23 8 19 -7 -4 -12 -2 -12 5 0 6 8 9 19 6 12 -3 22 1 25
9 6 16 22 18 31 5z m565 -29 c0 -4 -16 -14 -35 -21 -19 -7 -35 -17 -35 -22 0
-13 9 -11 26 6 19 19 30 19 38 0 7 -18 -19 -45 -44 -45 -10 0 -22 -4 -25 -10
-12 -20 -25 -9 -19 15 4 16 2 25 -5 25 -7 0 -24 -11 -39 -25 -27 -25 -42 -31
-42 -17 0 10 68 64 104 82 35 18 76 24 76 12z m-690 -34 c0 -16 -3 -19 -11
-11 -6 6 -8 16 -5 22 11 17 16 13 16 -11z m710 7 c0 -8 -4 -15 -10 -15 -5 0
-10 7 -10 15 0 8 5 15 10 15 6 0 10 -7 10 -15z m190 6 c0 -5 -7 -12 -16 -15
-14 -5 -15 -4 -4 9 14 17 20 19 20 6z m-529 -32 c-12 -12 -25 -18 -29 -14 -4
3 4 15 18 25 32 24 40 16 11 -11z m569 21 c0 -5 -5 -10 -11 -10 -5 0 -7 5 -4
10 3 6 8 10 11 10 2 0 4 -4 4 -10z m-194 -32 c4 -6 3 -8 -4 -4 -13 8 -20 -11
-14 -41 3 -19 8 -21 23 -13 15 8 17 7 13 -4 -7 -17 -53 -14 -64 5 -11 17 -41
-7 -38 -30 2 -9 -4 -16 -12 -16 -8 0 -20 -4 -27 -8 -18 -12 -25 10 -11 35 17
30 39 47 55 41 7 -3 13 0 13 5 0 15 29 42 45 42 8 0 17 -5 21 -12z m364 8 c0
-3 -4 -8 -10 -11 -5 -3 -10 -1 -10 4 0 6 5 11 10 11 6 0 10 -2 10 -4z m-780
-56 c0 -22 -59 -44 -67 -24 -3 7 -9 11 -14 8 -10 -6 -11 -1 -4 18 8 21 85 19
85 -2z m250 0 c0 -5 -5 -10 -11 -10 -5 0 -7 5 -4 10 3 6 8 10 11 10 2 0 4 -4
4 -10z m430 -45 c16 -10 -45 -66 -64 -59 -13 5 -13 8 -1 20 7 8 19 14 25 14 6
0 9 4 5 9 -3 5 -1 12 5 16 6 4 8 11 4 16 -4 6 -11 6 -19 -1 -10 -8 -15 -8 -21
1 -4 7 -3 9 3 6 6 -4 17 0 24 9 12 14 14 14 20 -4 4 -11 13 -23 19 -27z m-731
-18 c-2 -1 -13 -8 -24 -15 -11 -7 -32 -17 -47 -23 -19 -7 -25 -15 -21 -27 6
-14 4 -15 -8 -5 -12 10 -20 8 -40 -10 -26 -24 -36 -26 -56 -14 -18 11 -16 27
2 27 8 0 15 -4 15 -10 0 -5 5 -10 10 -10 6 0 10 7 10 16 0 8 5 12 10 9 6 -3
15 6 20 21 6 15 13 24 16 21 10 -10 64 15 75 34 9 18 11 18 26 4 8 -9 14 -17
12 -18z m-699 14 c0 -12 -20 -25 -27 -18 -7 7 6 27 18 27 5 0 9 -4 9 -9z m181
-18 c-12 -23 -48 -53 -91 -76 -27 -14 -31 -15 -20 -2 7 8 28 22 46 31 18 9 40
27 49 40 18 28 30 33 16 7z m-461 -18 c-7 -9 -15 -13 -17 -11 -6 6 20 36 26
30 2 -2 -2 -10 -9 -19z m1280 6 c0 -5 -7 -12 -16 -15 -14 -5 -15 -4 -4 9 14
17 20 19 20 6z m-305 -11 c3 -6 -1 -7 -9 -4 -18 7 -21 14 -7 14 6 0 13 -4 16
-10z m131 -22 c3 -4 14 -2 25 5 24 15 33 4 19 -22 -14 -27 -4 -47 15 -31 15
12 55 5 55 -10 0 -4 -7 -10 -15 -14 -8 -3 -15 -1 -15 5 0 5 -14 2 -31 -6 -19
-10 -29 -22 -25 -31 3 -7 2 -13 -2 -12 -4 1 -22 -6 -39 -15 -43 -23 -42 -9 2
23 42 30 48 45 34 72 l-11 21 -18 -23 c-10 -13 -20 -18 -23 -12 -4 5 0 15 8
22 8 7 15 17 15 23 0 5 -9 2 -20 -8 -19 -18 -20 -17 -20 3 0 16 5 21 20 19 11
-2 22 -6 26 -9z m134 -2 c0 -2 -8 -10 -17 -17 -16 -13 -17 -12 -4 4 13 16 21
21 21 13z m-190 -16 c0 -5 -5 -10 -11 -10 -5 0 -7 5 -4 10 3 6 8 10 11 10 2 0
4 -4 4 -10z m-574 -45 c-21 -16 -32 -13 -21 4 3 6 14 11 23 11 15 -1 15 -2 -2
-15z m51 -5 c-1 -13 -6 -19 -15 -15 -7 3 -16 5 -20 5 -5 0 29 29 35 30 1 0 1
-9 0 -20z m803 12 c0 -4 -11 -9 -25 -10 -14 -1 -25 2 -25 6 0 4 11 9 25 10 14
1 25 -2 25 -6z m81 -25 c-10 -9 -11 -8 -5 6 3 10 9 15 12 12 3 -3 0 -11 -7
-18z m-811 -32 c0 -15 -52 -13 -57 2 -3 7 1 18 8 26 11 11 16 11 31 -2 10 -8
18 -20 18 -26z m160 25 c0 -5 -7 -10 -16 -10 -8 0 -12 5 -9 10 3 6 10 10 16
10 5 0 9 -4 9 -10z m541 -13 c16 10 31 14 35 10 10 -10 -17 -39 -32 -33 -19 7
-29 -14 -13 -25 9 -6 18 -3 25 6 14 18 24 19 24 2 0 -19 -61 -46 -93 -42 -32
4 -50 15 -25 15 9 0 18 8 22 18 3 9 9 23 12 31 5 10 2 12 -8 9 -9 -4 -14 1
-15 15 -2 20 -2 20 19 -1 20 -20 23 -20 49 -5z m-828 7 c8 -8 -3 -34 -14 -34
-5 0 -9 9 -9 20 0 19 11 26 23 14z m549 -95 c-18 -17 -37 -27 -42 -24 -6 3
-13 -2 -17 -12 -4 -10 -16 -25 -26 -34 -16 -13 -18 -19 -8 -37 15 -28 15 -27
-16 -47 -22 -15 -25 -15 -20 -2 6 15 -11 27 -39 27 -8 0 -26 -11 -39 -24 -13
-14 -35 -27 -47 -31 -23 -6 -23 -6 2 14 14 12 42 35 63 53 21 17 57 44 80 58
23 15 51 37 61 48 11 12 23 22 28 22 5 0 16 7 25 15 8 9 18 13 21 10 4 -3 -8
-19 -26 -36z m475 -23 c-18 -27 -11 -42 10 -24 11 9 16 9 23 -2 6 -10 2 -22
-12 -37 -12 -13 -16 -23 -10 -23 7 0 12 -5 12 -10 0 -6 -10 -8 -23 -5 -15 4
-28 1 -36 -9 -9 -10 -22 -14 -37 -10 -20 5 -23 3 -18 -11 5 -13 9 -14 15 -3 7
10 9 10 9 -2 0 -21 -47 -38 -98 -34 -25 2 -40 -1 -37 -7 4 -5 2 -9 -4 -9 -11
0 -24 19 -28 40 -1 8 -7 16 -13 18 -8 3 -8 8 1 18 6 8 15 11 20 8 5 -3 17 0
26 5 17 10 17 10 -1 11 -14 0 -10 7 19 30 39 31 50 37 40 20 -3 -5 0 -10 9
-10 8 0 28 -8 45 -17 24 -14 33 -15 43 -5 9 9 8 12 -6 12 -15 0 -11 9 20 43
42 46 57 53 31 13z m-27 20 c0 -2 -8 -10 -17 -17 -16 -13 -17 -12 -4 4 13 16
21 21 21 13z m-225 -16 c-3 -5 -10 -10 -16 -10 -5 0 -9 5 -9 10 0 6 7 10 16
10 8 0 12 -4 9 -10z m415 -20 c-8 -5 -17 -7 -19 -4 -3 3 1 9 9 14 8 5 17 7 19
4 3 -3 -1 -9 -9 -14z m-527 -10 c4 -15 -3 -25 -24 -37 -16 -10 -29 -23 -29
-30 0 -17 10 -16 32 4 23 21 24 -1 1 -24 -10 -10 -18 -31 -18 -46 1 -16 -3
-31 -7 -33 -4 -3 -8 0 -8 6 0 7 -15 2 -35 -10 -19 -12 -40 -20 -47 -18 -6 2
-20 -4 -30 -14 -10 -10 -25 -18 -33 -18 -8 0 -15 -7 -15 -16 0 -8 -4 -13 -9
-10 -5 4 -7 -3 -4 -14 6 -22 30 -22 25 0 -2 8 3 10 13 7 8 -4 15 -2 15 3 0 6
5 10 10 10 6 0 10 -7 10 -15 0 -18 21 -20 38 -3 8 8 15 8 26 -1 7 -6 18 -11
22 -10 28 5 43 -2 37 -18 -4 -11 -3 -14 5 -9 23 14 112 17 112 5 0 -7 -3 -9
-7 -6 -3 4 -16 -1 -27 -12 -12 -10 -30 -21 -41 -23 -11 -2 -26 -16 -33 -31 -7
-15 -29 -34 -49 -42 -49 -21 -51 -19 -17 17 16 18 22 27 14 21 -8 -6 -28 -13
-45 -15 -18 -2 -30 -9 -30 -18 -1 -8 -7 -14 -14 -12 -8 2 -22 -5 -33 -14 -10
-10 -35 -28 -56 -40 l-37 -23 40 -1 c22 -1 49 -5 60 -10 19 -9 19 -9 -2 -16
-13 -3 -23 -10 -23 -14 0 -4 -12 -10 -27 -12 -16 -3 -37 -9 -48 -13 -20 -8
-20 -8 -1 14 l20 22 -34 -3 c-19 -1 -44 -12 -56 -25 -24 -24 -44 -30 -44 -14
0 6 42 42 93 81 133 102 167 131 167 140 0 14 -33 21 -44 9 -8 -9 -8 -10 1 -5
6 3 14 2 18 -3 3 -6 -3 -8 -15 -6 -15 3 -20 -1 -20 -16 0 -17 -6 -20 -32 -17
-28 2 -33 0 -31 -16 1 -21 -23 -45 -44 -46 -21 0 -15 31 7 37 18 5 22 13 24
59 1 25 -72 31 -89 8 -8 -12 -14 -14 -19 -6 -4 7 -1 12 6 12 9 0 9 3 -2 10
-13 8 -12 10 3 10 10 0 29 11 43 25 13 13 27 25 29 25 18 0 77 33 67 37 -10 4
-10 8 -1 19 21 26 -7 14 -57 -23 -96 -73 -102 -81 -97 -121 3 -20 2 -34 -3
-29 -4 4 -18 0 -32 -9 -13 -9 -21 -11 -18 -5 4 6 3 11 -3 11 -6 0 -8 7 -5 15
7 18 -12 20 -22 3 -5 -7 -10 -4 -16 11 -5 16 -3 27 8 38 8 8 17 13 20 10 15
-14 129 53 129 76 0 7 9 13 20 15 46 7 67 25 63 54 -4 22 -2 25 9 17 16 -14
47 7 36 24 -3 5 -1 7 4 4 6 -4 22 2 36 13 14 11 30 20 36 20 6 0 10 3 9 8 -4
12 44 72 53 66 5 -3 21 2 36 10 16 8 29 15 29 16 1 0 4 -9 7 -20z m47 -19 c0
-5 -7 -12 -16 -15 -14 -5 -15 -4 -4 9 14 17 20 19 20 6z m-10 -87 c0 -6 -7
-14 -14 -17 -10 -4 -13 -1 -9 9 4 10 0 13 -13 8 -14 -4 -15 -3 -6 3 7 6 12 14
11 19 -1 5 -1 14 0 19 2 13 31 -25 31 -41z m60 -24 c12 6 24 9 28 6 3 -3 0 -6
-6 -6 -7 0 -12 -5 -12 -11 0 -5 5 -7 10 -4 6 3 10 0 10 -8 0 -21 -27 -29 -34
-10 -6 14 -9 14 -27 -3 -11 -10 -26 -19 -33 -20 -8 -1 -24 -5 -37 -9 -22 -7
-23 -7 -8 16 20 29 72 60 80 46 4 -5 15 -5 29 3z m-100 -8 c0 -13 -12 -22 -22
-16 -10 6 -1 24 13 24 5 0 9 -4 9 -8z m-2608 -114 c15 -17 28 -33 28 -34 0 -1
-3 -11 -7 -21 -6 -15 -8 -13 -13 12 -3 18 -13 31 -25 35 -11 3 -21 13 -23 23
-4 25 8 21 40 -15z m2618 -8 c0 -5 -2 -10 -4 -10 -3 0 -8 5 -11 10 -3 6 -1 10
4 10 6 0 11 -4 11 -10z m-534 -125 c-22 -17 -36 -19 -36 -7 0 14 12 22 34 22
21 -1 21 -1 2 -15z m380 -55 c16 0 19 -36 4 -45 -19 -12 -57 6 -55 26 2 22 28
45 33 29 2 -6 10 -10 18 -10z m-2271 -30 c3 -5 -1 -10 -9 -10 -9 0 -16 5 -16
10 0 6 4 10 9 10 6 0 13 -4 16 -10z m2048 -11 c-4 -12 -14 -24 -24 -26 -9 -3
-20 -14 -22 -25 -6 -23 -27 -15 -27 11 0 22 19 41 42 41 10 0 18 5 18 10 0 6
4 10 9 10 5 0 7 -10 4 -21z m27 -124 c0 -8 -7 -15 -15 -15 -16 0 -20 12 -8 23
11 12 23 8 23 -8z m-1985 -225 c-3 -5 -10 -10 -16 -10 -5 0 -9 5 -9 10 0 6 7
10 16 10 8 0 12 -4 9 -10z m117 -62 c-12 -12 -25 -18 -29 -14 -4 4 3 16 16 27
31 25 41 15 13 -13z m-15 -141 c-2 -6 -13 -17 -25 -25 -20 -13 -20 -13 -10 10
11 23 42 36 35 15z m36 -84 c-7 -3 -9 -12 -6 -21 3 -9 2 -14 -2 -9 -5 4 -17 0
-27 -10 -10 -9 -18 -11 -18 -6 0 6 7 14 16 17 9 3 14 12 11 19 -2 6 0 23 5 37
l10 25 11 -24 c9 -18 9 -25 0 -28z m27 37 c0 -5 -4 -10 -10 -10 -5 0 -10 5
-10 10 0 6 5 10 10 10 6 0 10 -4 10 -10z m29 -31 c-29 -23 -39 -24 -39 -4 0
17 39 36 54 27 5 -2 -2 -13 -15 -23z m-254 -52 c19 -20 4 -36 -28 -30 -27 5
-27 6 -11 24 20 23 22 23 39 6z m-93 -34 c-6 -2 -10 -9 -6 -14 3 -5 0 -9 -5
-9 -6 0 -11 7 -11 15 0 8 8 15 18 14 10 0 12 -3 4 -6z m362 -22 c3 -5 -1 -12
-10 -15 -20 -8 -29 -1 -19 13 8 13 22 14 29 2z m-369 -21 c3 -5 -1 -10 -10
-10 -9 0 -13 5 -10 10 3 6 8 10 10 10 2 0 7 -4 10 -10z m221 -38 c-18 -16 -18
-16 -6 6 6 13 14 21 18 18 3 -4 -2 -14 -12 -24z m261 -4 c-3 -8 -6 -5 -6 6 -1
11 2 17 5 13 3 -3 4 -12 1 -19z m33 12 c0 -5 -4 -10 -10 -10 -5 0 -10 5 -10
10 0 6 5 10 10 10 6 0 10 -4 10 -10z m-514 -95 c-22 -17 -36 -19 -36 -7 0 14
12 22 34 22 21 -1 21 -1 2 -15z m374 -10 c0 -2 -9 -9 -20 -15 -12 -6 -20 -7
-20 -1 0 5 8 12 18 14 9 3 18 5 20 6 1 0 2 -1 2 -4z m110 -110 c-7 -9 -15 -13
-19 -10 -3 3 1 10 9 15 21 14 24 12 10 -5z m-400 -9 c0 -3 -4 -8 -10 -11 -5
-3 -10 -1 -10 4 0 6 5 11 10 11 6 0 10 -2 10 -4z m1080 -11 c0 -9 -41 -11 -47
-3 -3 7 -1 8 5 4 7 -4 12 -3 12 3 0 6 7 8 15 5 8 -4 15 -7 15 -9z m900 -17 c0
-6 -7 -5 -15 2 -8 7 -15 17 -15 22 0 6 7 5 15 -2 8 -7 15 -17 15 -22z m-791
-55 c1 -6 11 -19 23 -27 12 -9 18 -16 13 -16 -6 0 -3 -5 6 -10 9 -5 26 -28 38
-50 20 -38 20 -39 1 -28 -10 7 -16 16 -14 20 3 4 -1 8 -10 8 -8 0 -28 19 -45
43 -16 23 -36 49 -44 57 -15 16 -37 55 -37 65 0 12 69 -50 69 -62z m886 -25
c17 -11 36 -30 41 -42 5 -12 16 -21 24 -21 8 0 14 -8 14 -17 -1 -10 4 -14 13
-11 8 3 13 0 11 -8 -2 -8 3 -13 10 -11 8 1 12 -3 10 -10 -7 -18 32 -88 62
-115 14 -12 34 -23 45 -23 15 0 17 -2 6 -9 -7 -5 -10 -14 -7 -20 4 -6 2 -12
-3 -12 -26 -3 -30 -4 -37 -11 -4 -4 10 -26 32 -47 21 -22 41 -36 44 -30 4 5
14 7 24 3 13 -5 16 -13 12 -30 -4 -14 -2 -24 4 -24 6 0 8 5 4 11 -4 8 1 9 17
3 13 -4 29 -7 36 -7 7 0 12 -3 11 -6 0 -3 0 -15 1 -26 1 -15 3 -17 10 -6 6 9
11 10 15 2 4 -6 16 -11 27 -11 16 0 18 -5 13 -25 -3 -14 -2 -25 2 -24 5 1 17
1 27 0 15 -1 16 -4 6 -23 -10 -18 -8 -24 11 -40 16 -13 26 -15 35 -8 8 7 17 4
29 -9 15 -16 15 -19 1 -24 -15 -7 -21 -48 -8 -61 4 -4 8 -15 8 -24 0 -10 7
-16 17 -14 9 1 19 -2 23 -8 3 -5 1 -10 -5 -10 -14 0 24 -55 63 -93 31 -28 52
-31 24 -2 -9 9 -13 23 -10 32 4 10 2 14 -4 10 -6 -4 -14 0 -17 9 -4 9 -5 17
-4 18 2 1 13 7 26 14 22 12 28 5 23 -34 -1 -6 10 -17 25 -24 22 -12 27 -12 34
0 11 17 27 5 32 -25 2 -14 -9 -25 -39 -43 -49 -27 -52 -33 -20 -47 12 -6 22
-17 22 -26 0 -21 24 -49 38 -46 7 1 11 -4 9 -11 -1 -8 2 -11 7 -8 5 4 19 -3
29 -15 17 -17 24 -19 44 -9 22 11 22 10 3 -5 -19 -15 -19 -16 3 -37 12 -13 22
-17 22 -11 0 7 -5 15 -12 19 -21 13 24 21 64 11 26 -6 38 -15 38 -27 0 -9 11
-22 25 -28 27 -12 32 -27 14 -37 -14 -9 40 -37 58 -30 8 2 11 0 8 -5 -3 -6 0
-10 8 -10 8 0 21 -8 28 -17 13 -15 12 -16 -9 -11 -15 4 -22 2 -19 -5 2 -7 12
-11 22 -9 11 2 15 -2 13 -10 -3 -7 8 -20 25 -28 17 -8 33 -21 35 -29 3 -9 0
-11 -8 -6 -8 5 -11 3 -8 -6 3 -8 9 -13 14 -13 14 2 46 -33 37 -39 -5 -3 -22 8
-39 25 -131 135 -226 218 -250 218 -24 0 -16 -36 11 -50 18 -10 22 -16 13 -21
-19 -12 20 -38 55 -39 21 0 27 -5 27 -22 0 -31 -15 -54 -24 -39 -4 6 -11 9
-16 6 -13 -8 -70 45 -70 66 0 10 -3 19 -7 19 -5 0 -30 21 -57 45 -30 27 -52
41 -56 35 -7 -12 -40 -3 -40 11 0 5 -7 9 -16 9 -8 0 -13 4 -9 9 3 6 14 8 25 6
23 -4 20 5 -14 44 -12 13 -14 20 -6 15 8 -4 0 11 -18 34 -20 24 -43 42 -55 43
-12 1 -27 2 -33 3 -13 1 -74 66 -74 78 0 4 11 3 25 -2 35 -13 32 6 -6 50 -20
23 -32 31 -36 22 -4 -10 -8 -10 -21 0 -13 10 -13 7 2 -17 l19 -30 -21 19 c-12
11 -22 15 -22 10 0 -5 -5 -2 -10 6 -8 12 -10 11 -10 -5 0 -12 5 -26 12 -33 7
-7 8 -12 4 -12 -4 0 -17 11 -28 25 -23 30 -44 34 -29 6 9 -16 8 -18 -9 -14
-11 3 -20 0 -20 -6 0 -6 -7 -11 -16 -11 -9 0 -14 -6 -11 -12 2 -7 10 -12 16
-11 6 2 10 -2 8 -9 -2 -12 4 -15 47 -17 19 -1 24 -6 22 -25 l-1 -25 -29 27
c-20 18 -27 22 -23 10 10 -28 -8 -29 -32 -2 -12 14 -25 23 -28 20 -4 -3 3 -16
15 -29 12 -13 22 -27 22 -31 0 -14 56 -55 76 -56 12 0 33 -10 48 -21 15 -12
30 -19 33 -16 3 4 18 0 34 -9 25 -13 28 -13 23 1 -4 8 -1 22 6 30 10 12 15 12
35 -1 13 -8 26 -23 30 -32 4 -10 -7 -5 -26 13 -29 28 -31 28 -18 5 30 -54 76
-93 63 -52 -4 10 -3 13 3 6 4 -6 19 -17 33 -24 15 -8 20 -15 12 -18 -7 -2 -19
2 -27 8 -16 13 -18 7 -9 -27 4 -13 14 -23 23 -24 20 0 65 -55 56 -69 -3 -5
-13 -10 -22 -10 -9 0 -13 -3 -10 -6 4 -4 -2 -15 -13 -24 -18 -15 -18 -19 -5
-30 8 -7 27 -10 42 -7 15 3 36 1 46 -5 32 -17 30 -2 -4 37 -27 31 -30 37 -14
33 11 -2 20 -10 20 -17 0 -21 20 -24 39 -6 11 11 21 13 33 7 15 -9 14 -11 -5
-23 -12 -8 -22 -21 -22 -31 0 -9 -3 -18 -7 -21 -5 -2 -3 -2 4 -1 7 2 15 -1 18
-6 4 -6 17 -10 31 -10 18 0 24 -5 24 -22 0 -20 -1 -20 -18 -5 -21 20 -48 7
-38 -18 3 -9 -14 5 -39 31 -38 40 -45 45 -39 24 3 -14 18 -37 32 -52 25 -27
22 -34 -15 -29 -7 1 -13 -2 -13 -7 0 -11 -48 -3 -56 9 -3 5 0 9 6 9 6 0 8 5 5
11 -4 6 -14 8 -22 5 -17 -7 -42 20 -43 45 0 9 -8 15 -21 15 -16 -1 -29 11 -46
44 -13 25 -31 44 -38 44 -8 -1 -17 7 -20 17 -4 11 -11 19 -16 19 -6 0 -17 16
-25 35 -9 22 -21 35 -33 35 -23 0 -45 25 -35 41 4 7 3 9 -4 5 -14 -9 -72 63
-72 90 0 13 -14 34 -35 51 -19 15 -36 39 -38 53 -3 17 -12 26 -35 32 -21 6
-45 27 -77 69 -25 33 -43 64 -40 69 3 5 -5 17 -18 26 -22 17 -22 17 -3 40 19
21 46 22 46 2 0 -5 -5 -6 -12 -2 -7 4 -8 3 -4 -5 4 -6 12 -9 17 -5 5 3 17 0
26 -8 13 -11 17 -11 21 0 3 10 8 9 23 -4 18 -16 19 -16 19 4 0 11 -5 22 -12
24 -8 3 -9 6 -1 11 5 3 18 0 28 -7 18 -13 18 -14 2 -31 -17 -16 -16 -18 9 -42
30 -27 41 -25 25 5 -17 31 -14 47 4 32 25 -21 17 5 -10 30 -14 13 -25 28 -25
33 0 6 10 1 23 -11 12 -11 27 -22 32 -22 6 -1 9 -6 7 -11 -5 -20 84 -107 96
-94 4 4 -1 12 -10 19 -19 14 -35 66 -21 66 15 0 33 -23 33 -42 0 -13 7 -17 24
-16 21 2 23 5 13 26 -13 29 -116 142 -129 142 -5 0 -4 -9 2 -19 16 -31 12 -57
-9 -57 -10 0 -17 6 -14 12 2 7 0 15 -6 19 -6 3 -11 14 -11 23 -1 26 -36 63
-54 56 -10 -4 -16 -1 -17 7 -3 34 -4 39 -11 36 -20 -7 -109 115 -95 130 9 8
57 -52 52 -64 -2 -7 -1 -12 3 -11 21 4 61 -23 64 -44 2 -15 11 -24 26 -26 26
-4 29 10 6 29 -9 8 -27 30 -39 49 -13 19 -32 46 -44 60 -12 14 -34 40 -49 57
-29 35 -42 41 -42 21 0 -7 -11 -18 -25 -25 -23 -10 -27 -8 -47 20 -12 17 -16
27 -7 22 12 -8 12 -6 0 8 -7 9 -10 17 -5 17 5 0 -2 7 -14 16 -12 8 -20 19 -17
24 3 4 -2 10 -10 14 -8 3 -15 10 -15 15 0 19 27 18 50 -2 16 -13 19 -18 8 -14
-12 4 -18 1 -18 -9 0 -11 6 -14 16 -10 8 3 12 2 9 -4 -3 -6 -1 -10 4 -10 6 0
10 -5 9 -11 -2 -6 3 -14 10 -16 6 -3 12 0 12 6 0 6 7 8 15 5 25 -10 17 5 -37
70 -78 92 -98 119 -98 130 0 5 -7 17 -16 27 -8 9 -16 23 -18 31 -1 7 -9 28
-19 47 -22 44 -21 46 5 21 12 -11 36 -30 53 -42z m-990 12 c-28 -12 -37 -12
-30 0 3 6 16 10 28 9 21 0 21 -1 2 -9z m-860 -30 c-3 -5 -11 -10 -16 -10 -6 0
-7 5 -4 10 3 6 11 10 16 10 6 0 7 -4 4 -10z m835 -51 c0 -6 -4 -7 -10 -4 -5 3
-10 11 -10 16 0 6 5 7 10 4 6 -3 10 -11 10 -16z m-231 -84 c0 -5 -9 1 -19 14
-11 13 -20 28 -20 35 0 6 9 0 20 -14 11 -14 20 -29 19 -35z m234 40 c-3 -9 -8
-14 -10 -11 -3 3 -2 9 2 15 9 16 15 13 8 -4z m-259 -35 c15 -23 30 -38 35 -36
4 3 6 -5 4 -19 -9 -43 -62 -4 -57 41 1 13 -2 24 -7 24 -5 0 -9 7 -9 15 0 22 5
19 34 -25z m1269 -5 c15 -19 25 -40 22 -45 -10 -16 -25 -11 -25 8 0 14 -2 15
-9 3 -8 -12 -11 -8 -16 15 -4 16 -8 35 -11 42 -7 23 11 12 39 -23z m-818 -66
c11 -17 -1 -21 -15 -4 -8 9 -8 15 -2 15 6 0 14 -5 17 -11z m129 -20 c-8 -13
-24 -1 -24 18 0 13 3 13 15 3 8 -7 12 -16 9 -21z m-434 -5 c0 -20 -7 -17 -20
6 -9 16 -8 18 5 14 8 -4 15 -12 15 -20z m1022 -19 c19 8 51 -23 44 -42 -3 -8
-1 -11 4 -8 6 3 11 0 12 -7 0 -7 2 -17 2 -23 1 -5 4 -10 6 -10 7 0 79 -64 102
-90 46 -52 88 -108 88 -116 0 -5 -13 -3 -28 5 -26 13 -31 13 -44 -1 -14 -13
-19 -9 -54 44 -36 55 -89 126 -161 215 -18 22 -33 50 -33 61 1 21 2 20 24 -6
14 -17 28 -26 38 -22z m413 6 c3 -5 1 -12 -5 -16 -5 -3 -10 1 -10 9 0 18 6 21
15 7z m-995 -11 c9 5 19 5 27 -2 7 -6 13 -7 13 -2 0 4 11 -3 25 -16 13 -12 22
-27 18 -33 -3 -6 -2 -7 4 -4 10 6 33 -15 66 -63 20 -29 22 -44 5 -34 -8 4 -10
3 -5 -2 5 -5 13 -9 17 -9 13 0 109 -102 153 -162 21 -29 46 -55 57 -58 22 -7
111 -117 140 -174 12 -21 54 -69 95 -107 52 -48 75 -76 75 -92 0 -27 57 -100
96 -122 15 -9 42 -34 60 -56 l34 -40 -30 0 c-22 1 -35 9 -49 31 -43 66 -58 80
-74 67 -12 -10 -16 -9 -21 4 -3 9 -4 20 0 25 3 5 -7 14 -21 21 -18 8 -25 17
-22 30 4 12 -6 30 -27 51 -18 18 -47 51 -64 75 -17 24 -46 55 -64 70 -47 39
-98 92 -98 103 0 6 -11 21 -25 35 -14 14 -25 29 -25 35 0 6 -4 7 -10 4 -5 -3
-10 3 -10 15 0 11 -7 23 -15 26 -8 4 -15 10 -15 16 0 5 -12 20 -27 34 -23 21
-25 27 -13 34 8 6 10 10 4 10 -7 0 -19 -11 -28 -25 -16 -24 -16 -25 4 -25 21
0 45 -40 29 -50 -4 -3 -4 -12 0 -19 5 -7 13 -11 19 -7 5 3 15 0 21 -8 9 -10 9
-15 1 -18 -6 -2 -8 -11 -4 -21 3 -10 12 -16 19 -13 15 6 35 -13 35 -33 1 -22
37 -64 50 -56 5 3 10 1 10 -4 0 -6 -4 -11 -10 -11 -5 0 -1 -9 10 -20 24 -24
26 -40 4 -40 -8 0 -13 4 -10 9 6 10 -20 35 -46 44 -10 4 -18 13 -18 22 0 8 -4
15 -10 15 -5 0 -10 -4 -10 -9 0 -6 5 -13 10 -16 6 -3 10 -12 10 -18 0 -7 -7
-4 -14 6 -7 9 -18 17 -24 17 -12 0 -32 31 -32 50 0 6 5 8 10 5 6 -3 10 3 10
14 0 11 -5 23 -11 26 -6 4 -8 13 -5 20 2 7 -7 18 -20 26 -21 11 -27 11 -33 0
-7 -11 -14 -10 -35 4 -21 14 -26 15 -26 3 0 -17 -35 -17 -51 -1 -6 6 -17 9
-24 7 -7 -3 -15 2 -18 10 -4 9 -2 16 3 16 6 0 10 -6 11 -12 0 -10 2 -10 6 0 2
6 9 9 15 6 5 -4 2 6 -8 22 l-19 29 26 -20 c15 -11 25 -23 22 -27 -2 -5 5 -8
16 -8 11 0 23 5 26 10 4 6 11 7 17 4 7 -4 8 -2 4 5 -4 6 -13 10 -20 9 -16 -4
-76 56 -76 76 0 9 -4 16 -10 16 -11 0 -30 32 -35 61 -4 20 2 24 23 11 7 -5 10
-17 6 -28 -4 -13 -3 -15 3 -6 8 10 13 9 24 -4 8 -10 9 -15 2 -11 -6 4 -14 3
-18 -2 -7 -12 25 -30 43 -24 6 3 12 0 12 -6 0 -6 5 -11 11 -11 5 0 7 5 3 11
-4 7 2 9 17 7 20 -2 24 1 21 22 -3 30 -31 55 -46 40 -6 -6 -5 -14 2 -23 12
-14 7 -27 -10 -27 -5 0 -6 5 -3 10 4 6 1 17 -5 25 -8 10 -9 15 -2 15 14 0 0
48 -23 84 -10 14 -14 26 -10 26 3 0 0 7 -9 15 -8 8 -19 15 -25 15 -5 0 -15 8
-20 18 -6 9 -11 14 -11 10 0 -4 -12 -3 -26 2 -18 7 -31 7 -40 -1 -7 -6 -18 -8
-24 -4 -13 8 -13 -1 0 -26 11 -20 -3 -28 -15 -9 -12 19 -35 11 -32 -11 1 -12
-5 -24 -13 -27 -8 -3 -12 -1 -8 3 4 4 -1 16 -12 27 -34 37 -2 79 33 43 21 -20
32 -2 16 26 -9 19 -9 21 4 16 9 -3 18 1 21 10 5 11 10 12 19 5 8 -7 18 -7 27
-2z m-310 -30 c0 -5 -2 -10 -4 -10 -3 0 -8 5 -11 10 -3 6 -1 10 4 10 6 0 11
-4 11 -10z m371 -67 c13 -16 12 -17 -3 -4 -17 13 -22 21 -14 21 2 0 10 -8 17
-17z m279 -22 c17 -33 11 -45 -10 -18 -22 28 -25 37 -10 37 5 0 14 -9 20 -19z
m-385 -50 c10 -17 -12 -21 -25 -6 -10 12 -10 15 3 15 9 0 18 -4 22 -9z m105
-93 c0 -2 -18 -3 -40 -3 -26 -1 -40 3 -40 12 0 7 0 15 0 18 0 3 3 5 8 4 4 -1
6 -6 4 -12 -2 -6 4 -5 12 3 19 15 21 24 4 14 -7 -5 -8 -3 -3 6 5 9 14 5 31
-14 13 -14 24 -26 24 -28z m1220 -8 c0 -5 -4 -10 -10 -10 -5 0 -10 5 -10 10 0
6 5 10 10 10 6 0 10 -4 10 -10z m-1260 -10 c0 -5 -2 -10 -4 -10 -3 0 -8 5 -11
10 -3 6 -1 10 4 10 6 0 11 -4 11 -10z m455 0 c3 -5 -1 -10 -9 -10 -9 0 -16 5
-16 10 0 6 4 10 9 10 6 0 13 -4 16 -10z m-437 -45 c-3 -3 -9 2 -12 12 -6 14
-5 15 5 6 7 -7 10 -15 7 -18z m762 -10 c0 5 11 -2 24 -14 28 -26 38 -67 21
-81 -15 -12 -50 24 -57 60 -3 14 -9 34 -13 45 -7 20 -6 20 9 1 9 -11 16 -16
16 -11z m490 -19 c0 -3 -4 -8 -10 -11 -5 -3 -10 -1 -10 4 0 6 5 11 10 11 6 0
10 -2 10 -4z m-175 -76 c3 -5 1 -10 -4 -10 -6 0 -11 5 -11 10 0 6 2 10 4 10 3
0 8 -4 11 -10z m370 0 c3 -5 1 -10 -4 -10 -6 0 -11 5 -11 10 0 6 2 10 4 10 3
0 8 -4 11 -10z m50 -50 c10 -11 16 -20 13 -20 -3 0 -13 9 -23 20 -10 11 -16
20 -13 20 3 0 13 -9 23 -20z m-1306 -83 c-6 -9 -7 -22 -4 -27 3 -6 1 -10 -4
-10 -6 0 -11 5 -11 11 0 5 -4 7 -10 4 -6 -3 -9 4 -8 19 1 13 6 22 12 19 5 -4
6 6 2 22 l-7 29 19 -24 c15 -18 18 -30 11 -43z m1283 46 c10 -9 18 -20 18 -25
0 -16 -27 -7 -50 17 -21 22 -22 25 -5 25 10 0 27 -7 37 -17z m-1327 -3 c3 -5
1 -10 -4 -10 -6 0 -11 5 -11 10 0 6 2 10 4 10 3 0 8 -4 11 -10z m1395 -5 c20
-24 6 -28 -15 -5 -10 11 -13 20 -8 20 6 0 16 -7 23 -15z m-163 -1 c-3 -3 -12
-4 -19 -1 -8 3 -5 6 6 6 11 1 17 -2 13 -5z m-1127 -95 c0 -29 -44 9 -48 41
l-3 25 26 -28 c14 -15 25 -32 25 -38z m453 7 c3 -8 3 -17 0 -20 -7 -7 -33 13
-33 25 0 15 27 10 33 -5z m702 -36 c3 -5 1 -10 -4 -10 -6 0 -11 5 -11 10 0 6
2 10 4 10 3 0 8 -4 11 -10z m189 -33 c14 -13 23 -27 19 -30 -10 -11 -25 -8
-18 3 3 6 2 10 -2 10 -5 0 -14 9 -21 20 -16 26 -9 25 22 -3z m-344 -29 c0 -14
-19 1 -31 25 -12 22 -12 22 10 3 11 -11 21 -23 21 -28z m254 8 c5 -16 8 -18
15 -8 6 11 13 7 31 -15 l22 -28 -23 -3 c-13 -2 -25 1 -27 8 -3 9 -6 9 -12 0
-10 -16 -55 25 -62 56 -4 17 -1 20 23 16 17 -3 29 -12 33 -26z m-1144 -6 c0
-5 -6 -10 -14 -10 -8 0 -18 5 -21 10 -3 6 3 10 14 10 12 0 21 -4 21 -10z m810
-25 c14 -19 14 -19 -2 -6 -10 7 -18 18 -18 24 0 6 1 8 3 6 1 -2 9 -13 17 -24z
m-355 -25 c4 -6 10 -8 15 -5 12 7 28 -24 24 -44 -2 -9 7 -24 22 -34 22 -16 32
-21 64 -26 3 -1 -1 -5 -8 -10 -10 -6 -6 -15 17 -39 16 -18 32 -32 36 -32 4 0
14 -8 21 -17 9 -12 13 -14 14 -5 0 7 5 10 10 7 20 -12 10 34 -11 48 -13 9 -16
17 -10 22 12 7 60 -43 61 -63 0 -7 -3 -11 -8 -8 -4 2 -15 -2 -25 -9 -22 -16
-12 -42 28 -73 14 -11 25 -24 25 -30 0 -9 23 -22 37 -21 8 1 26 -31 30 -54 2
-11 -1 -16 -7 -12 -6 4 -17 2 -24 -4 -15 -13 -27 5 -32 48 -2 13 -11 32 -21
43 -15 16 -19 17 -28 5 -8 -12 -15 -9 -37 14 -21 20 -24 28 -13 31 10 2 12 7
5 18 -8 12 -12 13 -19 2 -6 -10 -11 -6 -19 16 -5 16 -31 52 -57 78 -25 27 -42
50 -37 52 5 1 -10 24 -34 50 -24 26 -44 50 -44 55 0 11 18 9 25 -3z m-200 -20
c3 -5 1 -10 -4 -10 -6 0 -11 5 -11 10 0 6 2 10 4 10 3 0 8 -4 11 -10z m1159
-6 c5 -14 4 -15 -9 -4 -17 14 -19 20 -6 20 5 0 12 -7 15 -16z m-29 -59 c0 -10
6 -20 14 -23 8 -3 11 0 7 7 -5 7 1 11 13 11 12 0 21 -4 21 -9 0 -5 8 -12 17
-15 15 -6 15 -5 -1 13 -10 11 -16 25 -14 31 2 6 42 -26 90 -72 47 -46 94 -90
104 -99 28 -25 74 -76 74 -84 0 -3 13 -20 30 -38 16 -18 30 -38 30 -45 0 -21
-86 56 -150 134 -32 40 -76 85 -97 100 -21 16 -41 33 -45 39 -8 11 -11 -12 -8
-60 l2 -29 -42 47 c-23 26 -46 44 -51 41 -5 -3 -9 1 -9 8 -1 7 -6 3 -14 -10
-12 -22 -13 -22 -27 -6 -12 16 -12 17 3 11 26 -9 34 30 12 54 -18 20 -18 20
11 16 21 -3 30 -9 30 -22z m-770 -15 c3 -5 1 -10 -4 -10 -6 0 -11 5 -11 10 0
6 2 10 4 10 3 0 8 -4 11 -10z m182 -187 c-8 -7 -37 9 -31 19 3 5 12 4 20 -3 8
-6 13 -14 11 -16z m759 10 c13 -17 14 -17 8 2 -5 19 -5 19 9 3 8 -10 22 -18
31 -18 10 0 16 -6 13 -12 -2 -7 -16 -12 -30 -10 -22 2 -26 -1 -21 -15 5 -17 5
-17 -9 0 -8 9 -19 17 -24 17 -6 0 -10 11 -10 25 0 29 14 32 33 8z m-722 -12
c4 -5 0 -12 -6 -15 -10 -5 -10 -7 0 -12 15 -7 16 -24 1 -24 -20 0 -39 33 -27
47 12 15 25 17 32 4z m526 -36 c7 -8 19 -15 27 -15 8 0 11 -4 8 -10 -6 -9 8
-14 28 -11 8 1 8 -8 -1 -32 -7 -15 -14 -12 -59 25 -29 24 -52 46 -52 51 -1 13
36 7 49 -8z m-4090 -9 c0 -2 -7 -7 -16 -10 -8 -3 -12 -2 -9 4 6 10 25 14 25 6z
m3454 -38 c-3 -5 -12 -1 -20 9 -20 27 -17 39 6 18 11 -10 17 -22 14 -27z m175
-5 c44 -43 77 -91 68 -100 -9 -8 -35 15 -42 38 -4 10 -18 22 -32 25 -19 5 -24
12 -20 30 2 13 1 23 -2 22 -18 -2 -31 3 -31 12 0 19 20 10 59 -27z m-3722 -23
c0 -16 -4 -30 -9 -30 -4 0 -8 4 -8 8 0 5 -7 9 -15 9 -15 0 -28 -24 -20 -37 3
-5 0 -12 -6 -16 -7 -4 -9 -3 -5 4 3 6 2 13 -2 16 -11 7 -34 -35 -30 -55 2 -8
-3 -12 -12 -10 -8 2 -26 5 -40 7 -24 2 -24 2 -6 -12 18 -13 15 -19 -8 -15 -5
1 -16 -1 -24 -4 -12 -4 -12 -9 3 -31 16 -25 16 -27 -11 -55 -15 -16 -33 -29
-38 -29 -6 0 1 10 16 23 18 14 26 29 24 42 -3 11 -5 22 -5 24 -1 2 -8 -2 -16
-9 -8 -7 -12 -16 -9 -21 3 -5 -3 -12 -13 -16 -22 -8 -72 -63 -73 -80 0 -7 -9
-13 -19 -13 -11 0 -38 -21 -60 -46 -23 -26 -41 -42 -41 -36 0 6 7 17 15 26 8
8 15 21 15 30 0 8 11 23 25 34 14 11 25 25 25 31 0 7 7 14 15 17 8 4 15 10 15
16 0 5 -5 6 -11 3 -6 -4 -5 3 3 14 13 21 13 21 19 -6 5 -26 7 -26 14 -8 5 11
14 23 21 28 7 4 11 18 8 33 -6 31 15 62 27 42 5 -7 3 -16 -4 -21 -9 -6 -8 -7
3 -5 8 3 17 15 20 28 4 15 22 32 50 47 33 17 153 91 166 102 0 1 1 -12 1 -29z
m4504 -37 c13 -15 16 -21 7 -14 -13 10 -18 10 -18 2 0 -7 -5 -9 -12 -5 -9 6
-9 9 0 12 10 3 10 7 1 18 -21 26 -3 14 22 -13z m-875 -20 c-7 -7 -26 7 -26 19
0 6 6 6 15 -2 9 -7 13 -15 11 -17z m-168 -2 c3 -8 -3 -12 -14 -9 -23 4 -31 27
-8 24 10 -2 20 -8 22 -15z m617 -32 c-8 -23 43 -89 68 -89 17 0 17 1 0 28
l-17 27 27 -24 c16 -15 23 -27 17 -31 -6 -4 -7 -15 -4 -25 7 -18 6 -18 -16 -2
-16 11 -27 13 -36 7 -8 -7 -19 -4 -35 10 -15 12 -20 23 -14 27 16 13 16 30 -1
43 -12 11 -13 10 -9 -3 4 -8 2 -18 -4 -22 -6 -3 -11 1 -11 11 0 10 -3 14 -6
11 -4 -3 -15 -2 -26 4 -14 8 -17 14 -9 23 6 7 8 16 5 19 -4 3 3 5 15 4 11 -1
21 -5 21 -9 0 -4 7 -8 15 -8 13 0 14 4 4 23 -11 20 -11 21 5 8 10 -8 14 -21
11 -32z m99 -9 c-6 -5 -24 21 -24 34 0 6 6 1 14 -10 8 -10 12 -21 10 -24z
m520 -22 l19 -33 -31 29 c-16 15 -33 37 -35 48 -5 18 -4 18 11 5 9 -9 26 -31
36 -49z m-920 -32 c20 -15 36 -35 36 -44 0 -18 -79 54 -112 103 l-21 30 31
-30 c17 -16 47 -43 66 -59z m83 23 c28 -28 50 -56 47 -63 -3 -7 2 -19 11 -26
18 -15 20 -31 3 -29 -7 1 -21 1 -31 0 -17 -1 -17 -2 -3 -17 23 -22 20 -30 -3
-10 -11 10 -17 24 -15 31 3 7 -2 15 -10 18 -9 4 -16 1 -16 -5 0 -9 -3 -9 -12
0 -9 9 -9 15 0 24 10 10 18 8 41 -5 39 -23 46 -21 21 5 -11 12 -20 26 -20 31
0 12 -68 77 -81 77 -5 0 -7 5 -4 10 10 17 18 12 72 -41z m-326 -10 c7 -14 5
-21 -12 -29 -13 -8 -18 -17 -14 -28 3 -9 -15 5 -40 30 -25 26 -45 51 -45 55 2
9 4 9 37 -2 19 -5 22 -3 16 11 -6 15 -4 15 21 -1 15 -10 31 -26 37 -36z m166
16 c9 -25 -4 -29 -17 -6 -7 15 -7 21 0 21 6 0 13 -7 17 -15z m866 -2 c-3 -7
-1 -13 4 -13 6 0 15 -12 22 -27 11 -24 11 -25 -4 -13 -9 7 -22 25 -30 40 -11
22 -12 27 0 27 7 0 11 -6 8 -14z m-368 -3 c3 -5 1 -10 -4 -10 -6 0 -11 5 -11
10 0 6 2 10 4 10 3 0 8 -4 11 -10z m-625 -35 c11 -13 10 -14 -4 -9 -9 3 -16
10 -16 15 0 13 6 11 20 -6z m450 5 c0 -5 -4 -10 -10 -10 -5 0 -10 5 -10 10 0
6 5 10 10 10 6 0 10 -4 10 -10z m-246 -46 c3 -8 2 -14 -2 -14 -10 0 -32 22
-32 32 0 12 28 -2 34 -18z m284 8 c2 -7 -2 -10 -12 -6 -9 3 -16 11 -16 16 0
13 23 5 28 -10z m-323 -40 c-5 -5 -45 36 -45 46 0 3 11 -5 25 -18 14 -13 23
-26 20 -28z m-41 -14 c17 -11 0 -19 -26 -13 -14 4 -24 13 -24 25 0 10 4 16 8
14 4 -3 8 1 8 8 0 7 6 4 12 -7 6 -11 16 -23 22 -27z m530 -14 c4 -11 0 -11
-19 2 -30 20 -31 24 -6 17 11 -3 22 -11 25 -19z m-4493 -8 c5 3 9 1 9 -5 0 -6
-9 -15 -20 -21 -17 -9 -20 -8 -20 8 0 22 13 38 18 23 2 -6 8 -9 13 -5z m3889
-21 c34 -36 21 -39 -19 -4 -20 17 -28 29 -19 29 8 0 25 -11 38 -25z m555 15
c3 -5 2 -10 -4 -10 -5 0 -13 5 -16 10 -3 6 -2 10 4 10 5 0 13 -4 16 -10z m79
-21 c-3 -5 -10 -7 -15 -3 -5 3 -7 10 -3 15 3 5 10 7 15 3 5 -3 7 -10 3 -15z
m-678 -22 c17 -15 24 -28 20 -36 -8 -13 -18 -5 -55 42 -20 25 3 21 35 -6z
m104 -28 c0 -5 -9 -9 -20 -9 -19 0 -26 11 -14 23 8 8 34 -3 34 -14z m-50 -40
c0 -14 -17 -10 -23 5 -4 10 -1 13 9 9 7 -3 14 -9 14 -14z m484 -15 c5 -13 3
-14 -6 -7 -7 6 -20 13 -28 16 -10 4 -8 6 6 6 12 1 25 -6 28 -15z m-700 -34 c5
1 14 -9 20 -22 6 -13 23 -28 37 -35 31 -15 65 -51 56 -59 -3 -4 -30 14 -58 40
-28 26 -54 44 -57 41 -6 -6 68 -74 81 -75 4 0 7 -7 7 -16 0 -11 -16 -3 -52 28
-28 23 -56 43 -61 43 -5 0 -16 10 -24 23 -14 20 -14 22 2 22 14 0 15 3 6 14
-10 11 -8 15 6 18 10 2 20 -2 23 -10 3 -7 10 -13 14 -12z m106 26 c0 -3 -4 -8
-10 -11 -5 -3 -10 -1 -10 4 0 6 5 11 10 11 6 0 10 -2 10 -4z m188 -47 c24 -29
13 -41 -14 -15 -7 8 -19 16 -26 18 -12 4 -3 28 10 27 4 0 17 -13 30 -30z m47
-99 c-9 -15 -25 -2 -25 21 0 19 1 19 16 5 8 -9 12 -20 9 -26z m29 24 c6 -15 4
-15 -11 -3 -10 7 -20 15 -22 16 -2 2 3 3 11 3 9 0 19 -7 22 -16z m62 -91 c-7
-7 -26 7 -26 19 0 6 6 6 15 -2 9 -7 13 -15 11 -17z m348 -22 c17 -19 17 -19
-2 -14 -12 3 -23 11 -26 19 -8 20 8 17 28 -5z m-564 -68 c0 -8 -8 -6 -25 9
-14 12 -25 23 -25 25 0 1 11 -3 25 -9 14 -6 25 -17 25 -25z m-4270 -3 c0 -5
-4 -10 -10 -10 -5 0 -7 -6 -4 -14 3 -8 1 -17 -5 -21 -12 -7 -15 14 -5 39 7 18
24 22 24 6z m-190 -8 c0 -12 -28 -48 -33 -42 -8 8 11 50 23 50 5 0 10 -4 10
-8z m-90 -16 c0 -2 -7 -7 -16 -10 -8 -3 -12 -2 -9 4 6 10 25 14 25 6z m92 -58
c-15 -15 -24 -6 -16 16 5 12 10 14 17 7 8 -8 8 -14 -1 -23z m4712 6 c3 -8 2
-12 -4 -9 -6 3 -10 10 -10 16 0 14 7 11 14 -7z"/>
<path d="M6145 5700 c3 -5 11 -10 16 -10 6 0 7 5 4 10 -3 6 -11 10 -16 10 -6
0 -7 -4 -4 -10z"/>
<path d="M6200 5620 c0 -5 7 -7 15 -4 8 4 15 8 15 10 0 2 -7 4 -15 4 -8 0 -15
-4 -15 -10z"/>
<path d="M5985 5450 c-3 -5 0 -12 6 -16 8 -4 7 -9 -2 -15 -11 -7 -9 -9 6 -9
14 0 21 7 21 20 0 21 -22 35 -31 20z"/>
<path d="M5931 5381 c-32 -6 -33 -7 -16 -21 17 -14 17 -15 -8 -20 -19 -4 -24
-9 -18 -18 6 -11 16 -8 46 12 21 14 41 26 45 26 4 0 10 7 14 15 6 16 -3 17
-63 6z"/>
<path d="M5870 5360 c0 -5 5 -10 10 -10 6 0 10 5 10 10 0 6 -4 10 -10 10 -5 0
-10 -4 -10 -10z"/>
<path d="M5610 5140 c0 -5 7 -10 16 -10 8 0 12 5 9 10 -3 6 -10 10 -16 10 -5
0 -9 -4 -9 -10z"/>
<path d="M5470 4993 c11 -23 40 -32 40 -12 0 6 -6 9 -12 6 -7 -2 -19 3 -26 12
-11 14 -11 13 -2 -6z"/>
<path d="M5490 4930 c18 -12 30 -13 30 -2 0 4 -10 9 -22 9 -18 2 -20 0 -8 -7z"/>
<path d="M5740 5380 c0 -5 7 -7 15 -4 8 4 15 8 15 10 0 2 -7 4 -15 4 -8 0 -15
-4 -15 -10z"/>
<path d="M5406 5145 c-8 -22 -8 -27 3 -21 5 3 12 -2 16 -12 6 -16 7 -16 17 1
7 13 7 22 -1 30 -6 6 -11 7 -11 2 0 -6 -4 -4 -9 3 -7 11 -10 10 -15 -3z"/>
<path d="M5260 5115 c-11 -13 -10 -14 4 -9 9 3 16 10 16 15 0 13 -6 11 -20 -6z"/>
<path d="M5226 5074 c-4 -10 -1 -14 6 -12 15 5 23 28 10 28 -5 0 -13 -7 -16
-16z"/>
<path d="M5265 5080 c-3 -5 -1 -10 4 -10 6 0 11 5 11 10 0 6 -2 10 -4 10 -3 0
-8 -4 -11 -10z"/>
<path d="M5318 5051 c-9 -11 -14 -22 -11 -25 12 -12 21 -5 25 19 6 30 7 30
-14 6z"/>
<path d="M5255 5050 c-3 -5 -1 -10 4 -10 6 0 11 5 11 10 0 6 -2 10 -4 10 -3 0
-8 -4 -11 -10z"/>
<path d="M2732 5140 c7 -11 17 -20 22 -20 5 0 1 9 -9 20 -10 11 -20 20 -22 20
-2 0 2 -9 9 -20z"/>
<path d="M5515 4710 c-3 -5 -2 -10 4 -10 5 0 13 5 16 10 3 6 2 10 -4 10 -5 0
-13 -4 -16 -10z"/>
<path d="M4640 4575 c0 -8 4 -15 10 -15 5 0 7 7 4 15 -4 8 -8 15 -10 15 -2 0
-4 -7 -4 -15z"/>
<path d="M4688 4173 c7 -3 16 -2 19 1 4 3 -2 6 -13 5 -11 0 -14 -3 -6 -6z"/>
<path d="M5305 4210 c-3 -5 -2 -10 4 -10 5 0 13 5 16 10 3 6 2 10 -4 10 -5 0
-13 -4 -16 -10z"/>
<path d="M4850 4135 c-7 -8 -16 -13 -20 -10 -11 7 -60 -15 -60 -26 0 -5 9 -13
20 -19 15 -8 20 -8 20 2 0 8 3 9 8 3 8 -12 27 -13 38 -2 4 4 0 7 -9 7 -24 0
-21 15 6 33 12 8 19 18 16 21 -3 4 -12 0 -19 -9z"/>
<path d="M4642 3943 c5 -24 25 -27 31 -3 4 15 0 20 -15 20 -13 0 -18 -6 -16
-17z"/>
<path d="M4744 3950 c-20 -8 -39 -38 -30 -47 7 -8 55 31 56 45 0 6 -1 12 -2
11 -2 0 -12 -4 -24 -9z"/>
<path d="M4859 3914 c-11 -14 -10 -16 9 -12 13 1 23 7 23 13 1 17 -17 16 -32
-1z"/>
<path d="M4580 2591 c0 -6 4 -13 10 -16 6 -3 7 1 4 9 -7 18 -14 21 -14 7z"/>
<path d="M4870 1892 c0 -5 7 -15 15 -22 8 -7 15 -8 15 -2 0 5 -7 15 -15 22 -8
7 -15 8 -15 2z"/>
<path d="M4945 1800 c3 -5 8 -10 11 -10 2 0 4 5 4 10 0 6 -5 10 -11 10 -5 0
-7 -4 -4 -10z"/>
<path d="M5290 1461 c0 -8 -7 -10 -20 -6 -15 5 -20 2 -20 -12 1 -21 23 -53 38
-53 5 0 12 -6 15 -12 6 -16 67 -52 67 -41 0 5 -9 15 -20 23 -11 8 -20 20 -20
26 0 7 -6 14 -12 17 -7 2 -10 7 -7 11 3 3 18 -6 32 -20 43 -43 31 -7 -13 38
-22 23 -40 36 -40 29z"/>
<path d="M5240 1381 c0 -6 5 -13 10 -16 6 -3 10 1 10 9 0 9 -4 16 -10 16 -5 0
-10 -4 -10 -9z"/>
<path d="M5340 1252 c0 -25 4 -32 20 -32 11 0 20 6 20 13 0 8 -9 22 -20 32
-20 18 -20 17 -20 -13z"/>
<path d="M3325 2450 c-3 -5 1 -10 10 -10 9 0 13 5 10 10 -3 6 -8 10 -10 10 -2
0 -7 -4 -10 -10z"/>
<path d="M4590 2230 c0 -5 5 -10 10 -10 6 0 10 5 10 10 0 6 -4 10 -10 10 -5 0
-10 -4 -10 -10z"/>
<path d="M3924 2337 c-4 -6 -4 -9 1 -5 4 4 14 3 22 -3 10 -9 13 -8 13 0 0 7 5
9 13 5 6 -4 9 -3 4 1 -13 14 -45 16 -53 2z"/>
<path d="M4076 2015 c4 -8 12 -15 19 -15 23 0 45 12 39 21 -8 14 -26 11 -18
-3 6 -10 4 -10 -7 0 -18 17 -40 15 -33 -3z"/>
<path d="M4735 1970 c3 -5 8 -10 11 -10 2 0 4 5 4 10 0 6 -5 10 -11 10 -5 0
-7 -4 -4 -10z"/>
<path d="M6330 6300 c-8 -5 -12 -11 -10 -14 3 -2 14 2 24 10 22 15 10 19 -14
4z"/>
<path d="M6348 6251 c-18 -16 -30 -32 -26 -36 3 -4 24 9 45 29 45 42 28 49
-19 7z"/>
<path d="M5840 6235 c0 -8 5 -15 10 -15 6 0 10 7 10 15 0 8 -4 15 -10 15 -5 0
-10 -7 -10 -15z"/>
<path d="M5693 6228 c-13 -6 -23 -15 -23 -20 0 -10 36 7 45 22 7 12 7 12 -22
-2z"/>
<path d="M5747 6205 c-39 -27 -53 -54 -17 -35 23 12 72 60 62 60 -4 0 -24 -11
-45 -25z"/>
<path d="M6544 6188 l-19 -23 23 19 c12 11 22 21 22 23 0 8 -8 2 -26 -19z"/>
<path d="M6270 6140 c-14 -11 -31 -20 -37 -20 -7 0 -13 -7 -13 -15 0 -19 9
-19 34 0 10 8 24 12 30 8 6 -3 8 -2 3 2 -4 5 0 17 10 27 21 24 5 23 -27 -2z"/>
<path d="M5525 6130 c-8 -13 5 -13 25 0 13 8 13 10 -2 10 -9 0 -20 -4 -23 -10z"/>
<path d="M5700 6100 c0 -5 5 -10 11 -10 5 0 7 5 4 10 -3 6 -8 10 -11 10 -2 0
-4 -4 -4 -10z"/>
<path d="M5470 6090 c-8 -5 -10 -10 -5 -10 6 0 17 5 25 10 8 5 11 10 5 10 -5
0 -17 -5 -25 -10z"/>
<path d="M5368 6034 c-16 -8 -28 -19 -28 -24 0 -16 10 -12 42 15 33 28 27 32
-14 9z"/>
<path d="M6505 5989 c-4 -6 -5 -12 -2 -15 2 -3 7 2 10 11 7 17 1 20 -8 4z"/>
<path d="M2310 5978 c0 -9 5 -20 10 -23 13 -8 13 5 0 25 -8 13 -10 13 -10 -2z"/>
<path d="M2337 5948 c5 -42 33 -77 61 -78 18 0 16 7 -27 66 l-39 55 5 -43z"/>
<path d="M5303 5854 l-28 -25 33 22 c17 13 32 24 32 26 0 8 -11 1 -37 -23z"/>
<path d="M1915 5860 c-3 -5 1 -10 10 -10 9 0 13 5 10 10 -3 6 -8 10 -10 10 -2
0 -7 -4 -10 -10z"/>
<path d="M5776 5826 c3 -9 1 -16 -5 -16 -6 0 -11 -4 -11 -9 0 -6 8 -9 19 -8
12 1 17 7 13 19 -2 10 -8 21 -13 24 -5 3 -6 -2 -3 -10z"/>
<path d="M5176 5757 c-23 -19 -26 -25 -14 -30 10 -3 23 5 37 24 26 35 17 37
-23 6z"/>
<path d="M6780 5765 c-7 -9 -8 -15 -2 -15 5 0 12 7 16 15 3 8 4 15 2 15 -2 0
-9 -7 -16 -15z"/>
<path d="M4985 5760 c-3 -5 1 -10 9 -10 9 0 16 5 16 10 0 6 -4 10 -9 10 -6 0
-13 -4 -16 -10z"/>
<path d="M5750 5730 c-9 -6 -10 -10 -3 -10 6 0 15 5 18 10 8 12 4 12 -15 0z"/>
<path d="M5699 5693 c-13 -15 -12 -15 9 -4 23 12 28 21 13 21 -5 0 -15 -7 -22
-17z"/>
<path d="M7290 5650 c-6 -11 -8 -20 -6 -20 3 0 10 9 16 20 6 11 8 20 6 20 -3
0 -10 -9 -16 -20z"/>
<path d="M6965 5650 c-3 -5 -1 -10 4 -10 6 0 11 5 11 10 0 6 -2 10 -4 10 -3 0
-8 -4 -11 -10z"/>
<path d="M4810 5608 c-31 -42 -20 -44 19 -5 20 22 26 34 17 34 -8 0 -24 -13
-36 -29z"/>
<path d="M2686 5606 c10 -8 21 -12 24 -10 5 6 -21 24 -34 24 -6 0 -1 -6 10
-14z"/>
<path d="M7136 5593 c-6 -14 -5 -15 5 -6 7 7 10 15 7 18 -3 3 -9 -2 -12 -12z"/>
<path d="M5677 5594 c-11 -12 3 -23 20 -17 10 4 14 2 9 -5 -3 -6 -3 -13 2 -16
4 -2 8 6 8 20 0 23 -23 34 -39 18z"/>
<path d="M4971 5564 c0 -11 3 -14 6 -6 3 7 2 16 -1 19 -3 4 -6 -2 -5 -13z"/>
<path d="M1430 5540 c6 -11 13 -20 15 -20 2 0 3 9 2 20 -1 11 -7 20 -14 20
-11 0 -11 -5 -3 -20z"/>
<path d="M1460 5539 c0 -5 5 -7 10 -4 6 3 10 8 10 11 0 2 -4 4 -10 4 -5 0 -10
-5 -10 -11z"/>
<path d="M4740 5535 c-7 -9 -11 -17 -9 -20 3 -2 10 5 17 15 14 24 10 26 -8 5z"/>
<path d="M4543 5365 c-26 -24 -43 -44 -38 -44 6 0 32 20 58 44 27 25 44 45 39
45 -6 0 -32 -20 -59 -45z"/>
<path d="M4760 5320 l-32 -40 29 16 c16 10 34 28 40 41 17 36 -2 27 -37 -17z"/>
<path d="M4445 5277 c-53 -31 -240 -205 -230 -215 2 -2 17 10 34 27 17 17 33
31 36 31 3 0 28 21 55 48 27 26 58 53 69 61 11 8 18 18 15 23 -3 4 1 8 9 8 8
0 20 7 27 15 14 17 13 17 -15 2z"/>
<path d="M4510 5200 c-9 -6 -10 -10 -3 -10 6 0 15 5 18 10 8 12 4 12 -15 0z"/>
<path d="M3160 5156 c0 -2 8 -10 18 -17 15 -13 16 -12 3 4 -13 16 -21 21 -21
13z"/>
<path d="M6525 5130 c3 -5 8 -10 11 -10 2 0 4 5 4 10 0 6 -5 10 -11 10 -5 0
-7 -4 -4 -10z"/>
<path d="M6254 5045 c-17 -13 -17 -14 -2 -15 9 0 20 5 23 11 11 17 0 20 -21 4z"/>
<path d="M3240 5031 c0 -5 5 -13 10 -16 6 -3 10 -2 10 4 0 5 -4 13 -10 16 -5
3 -10 2 -10 -4z"/>
<path d="M6176 5004 c-20 -19 -20 -25 -2 -50 8 -10 18 -15 23 -11 4 5 0 14 -9
21 -16 12 -15 14 5 34 12 12 16 22 10 22 -6 0 -19 -7 -27 -16z"/>
<path d="M6277 4997 c-2 -6 7 -17 21 -24 30 -16 66 -17 56 -2 -3 6 0 15 7 20
11 7 9 9 -6 10 -11 0 -32 2 -47 4 -15 2 -29 -2 -31 -8z"/>
<path d="M6480 4987 c0 -8 7 -14 15 -14 8 0 12 4 9 8 -2 4 2 10 8 12 7 3 3 6
-9 6 -13 1 -23 -5 -23 -12z"/>
<path d="M5847 4973 c3 -8 2 -13 -3 -12 -27 5 -34 -1 -24 -21 10 -19 12 -19
40 10 36 37 37 40 6 38 -15 -1 -22 -7 -19 -15z"/>
<path d="M5978 4963 c-10 -2 -18 -12 -18 -20 0 -14 3 -14 20 2 17 15 26 28 18
24 -2 -1 -11 -3 -20 -6z"/>
<path d="M5975 4920 c-3 -5 -1 -10 4 -10 6 0 11 5 11 10 0 6 -2 10 -4 10 -3 0
-8 -4 -11 -10z"/>
<path d="M6192 4913 c-4 -10 -18 -19 -32 -20 -70 -5 -71 -6 -65 -35 5 -23 4
-27 -9 -22 -11 4 -16 1 -16 -10 0 -14 8 -16 52 -11 29 3 49 3 46 -1 -4 -3 -2
-12 5 -18 9 -10 26 -5 80 21 38 19 79 43 90 54 11 10 27 19 34 19 7 0 13 5 13
11 0 14 -33 3 -97 -32 -39 -22 -59 -27 -83 -22 -21 4 -35 2 -40 -7 -4 -7 -13
-11 -20 -8 -7 2 3 14 23 28 20 13 34 27 31 31 -2 4 3 10 12 13 8 3 12 10 9 16
-10 15 -25 12 -33 -7z m13 -82 c7 -12 -12 -24 -25 -16 -11 7 -4 25 10 25 5 0
11 -4 15 -9z"/>
<path d="M5772 4898 c-7 -7 -12 -17 -12 -22 0 -6 5 -3 11 7 6 9 14 15 20 12 5
-4 9 -1 9 4 0 14 -13 14 -28 -1z"/>
<path d="M6400 4872 c-19 -20 -57 -50 -84 -65 -26 -15 -46 -30 -43 -33 3 -3
22 5 44 19 63 39 71 40 69 6 -3 -37 8 -37 47 1 18 17 48 44 67 61 28 24 31 29
12 24 -15 -4 -24 -1 -28 9 -10 27 -47 17 -84 -22z"/>
<path d="M6006 4874 c-18 -17 -21 -28 -7 -20 5 4 11 3 14 -1 2 -5 2 -2 0 6 -2
9 3 12 16 8 12 -3 22 1 25 9 7 19 -28 18 -48 -2z"/>
<path d="M5680 4850 c0 -5 5 -10 10 -10 6 0 10 5 10 10 0 6 -4 10 -10 10 -5 0
-10 -4 -10 -10z"/>
<path d="M5975 4830 c-3 -5 -1 -10 4 -10 6 0 11 5 11 10 0 6 -2 10 -4 10 -3 0
-8 -4 -11 -10z"/>
<path d="M5882 4808 c-19 -19 -14 -29 8 -16 20 13 27 28 12 28 -4 0 -13 -5
-20 -12z"/>
<path d="M5890 4770 c-8 -5 -11 -12 -7 -16 4 -4 15 0 24 9 18 18 8 23 -17 7z"/>
<path d="M5820 4749 c0 -5 5 -7 10 -4 6 3 10 8 10 11 0 2 -4 4 -10 4 -5 0 -10
-5 -10 -11z"/>
<path d="M6219 4739 c-23 -19 -23 -20 -2 -10 12 6 25 16 28 21 10 16 -1 12
-26 -11z"/>
<path d="M5780 4725 l-25 -15 24 4 c14 1 27 8 29 14 5 15 3 15 -28 -3z"/>
<path d="M5819 4711 c-13 -10 -31 -16 -39 -14 -13 4 -13 3 -1 -6 16 -11 40 -2
61 23 17 21 8 20 -21 -3z"/>
<path d="M3872 4699 c-7 -11 -18 -17 -24 -13 -7 4 -8 3 -4 -4 4 -7 2 -12 -4
-12 -6 0 -8 -4 -5 -10 8 -12 26 -13 23 -1 -2 4 8 17 21 28 13 11 20 22 15 26
-6 3 -16 -3 -22 -14z"/>
<path d="M5882 4670 c-10 -16 -10 -20 1 -20 14 0 37 20 37 32 0 16 -25 8 -38
-12z"/>
<path d="M5720 4629 c0 -5 5 -7 10 -4 6 3 10 8 10 11 0 2 -4 4 -10 4 -5 0 -10
-5 -10 -11z"/>
<path d="M1742 4610 c0 -14 2 -19 5 -12 2 6 2 18 0 25 -3 6 -5 1 -5 -13z"/>
<path d="M5804 4615 c-15 -11 -16 -14 -4 -15 21 0 44 16 33 23 -6 4 -19 0 -29
-8z"/>
<path d="M3840 4600 c-9 -6 -10 -10 -3 -10 6 0 15 5 18 10 8 12 4 12 -15 0z"/>
<path d="M5666 4530 c-33 -10 -76 -48 -76 -67 0 -16 5 -16 32 -2 12 6 35 12
51 13 17 1 33 8 35 15 3 8 0 11 -7 7 -6 -4 -11 -2 -11 3 0 6 5 11 10 11 6 0
10 7 10 15 0 17 -3 17 -44 5z"/>
<path d="M5830 4520 c-9 -6 -10 -10 -3 -10 6 0 15 5 18 10 8 12 4 12 -15 0z"/>
<path d="M1870 4450 c0 -11 7 -20 15 -20 8 0 15 -6 15 -12 0 -9 3 -9 9 1 7 11
3 20 -11 33 -26 23 -28 22 -28 -2z"/>
<path d="M5430 4439 c0 -5 5 -7 10 -4 6 3 10 8 10 11 0 2 -4 4 -10 4 -5 0 -10
-5 -10 -11z"/>
<path d="M1910 4389 c0 -5 5 -7 10 -4 6 3 10 8 10 11 0 2 -4 4 -10 4 -5 0 -10
-5 -10 -11z"/>
<path d="M1990 4286 c0 -15 18 -31 26 -23 7 7 -7 37 -17 37 -5 0 -9 -6 -9 -14z"/>
<path d="M2020 4220 c0 -5 5 -10 10 -10 6 0 10 5 10 10 0 6 -4 10 -10 10 -5 0
-10 -4 -10 -10z"/>
<path d="M2200 4120 c0 -5 5 -10 10 -10 6 0 10 5 10 10 0 6 -4 10 -10 10 -5 0
-10 -4 -10 -10z"/>
<path d="M2170 4081 c0 -5 7 -11 15 -15 8 -3 15 -1 15 3 0 5 -7 11 -15 15 -8
3 -15 1 -15 -3z"/>
<path d="M2210 3920 c0 -5 5 -10 10 -10 6 0 10 -11 10 -25 0 -14 8 -33 18 -43
10 -10 16 -24 14 -30 -2 -7 2 -10 11 -6 12 4 13 11 4 35 -6 16 -14 29 -18 29
-4 0 -12 14 -19 30 -12 29 -30 41 -30 20z"/>
<path d="M2415 3720 c3 -5 8 -10 11 -10 2 0 4 5 4 10 0 6 -5 10 -11 10 -5 0
-7 -4 -4 -10z"/>
<path d="M2410 3600 c0 -5 5 -10 11 -10 5 0 7 5 4 10 -3 6 -8 10 -11 10 -2 0
-4 -4 -4 -10z"/>
<path d="M2091 3359 c-13 -11 -22 -21 -20 -24 3 -2 18 7 34 20 17 13 26 24 20
24 -5 0 -21 -9 -34 -20z"/>
<path d="M1710 3119 c0 -5 5 -7 10 -4 6 3 10 8 10 11 0 2 -4 4 -10 4 -5 0 -10
-5 -10 -11z"/>
<path d="M1491 2970 c-8 -4 -10 -16 -6 -29 4 -12 2 -21 -4 -21 -6 0 -11 -5
-11 -12 0 -6 14 1 30 17 17 16 30 32 30 36 0 11 -26 18 -39 9z"/>
<path d="M1280 2800 c-14 -10 -22 -21 -19 -24 3 -3 16 5 29 19 28 30 24 32
-10 5z"/>
<path d="M1188 2663 c7 -3 16 -2 19 1 4 3 -2 6 -13 5 -11 0 -14 -3 -6 -6z"/>
<path d="M1060 2609 c0 -5 5 -7 10 -4 6 3 10 8 10 11 0 2 -4 4 -10 4 -5 0 -10
-5 -10 -11z"/>
<path d="M953 2518 c-37 -34 -83 -76 -102 -91 -28 -23 -32 -32 -24 -49 8 -19
10 -18 33 16 14 20 31 36 38 36 6 0 12 7 12 16 0 9 9 18 20 21 11 3 18 9 15
13 -3 4 16 27 41 50 25 23 43 44 40 47 -2 3 -35 -24 -73 -59z"/>
<path d="M3480 2268 c0 -4 9 -27 19 -50 11 -24 22 -51 25 -60 3 -10 10 -18 16
-18 6 0 8 5 5 10 -3 6 -2 10 3 10 12 0 23 38 13 45 -4 2 -6 18 -3 35 2 17 0
30 -4 29 -5 -1 -11 0 -14 1 -15 6 -60 5 -60 -2z"/>
<path d="M531 2123 c-11 -15 -25 -33 -30 -39 -15 -18 -31 -52 -31 -66 0 -7 7
0 15 15 8 16 29 47 46 68 17 22 29 42 26 45 -2 3 -14 -8 -26 -23z"/>
<path d="M3770 2083 c0 -7 -7 -13 -15 -13 -22 0 -19 -7 20 -47 23 -23 35 -31
35 -21 0 9 7 19 16 22 16 6 12 21 -6 21 -4 0 -17 11 -29 25 -11 14 -20 19 -21
13z"/>
<path d="M3575 1971 c-3 -5 -1 -12 5 -16 5 -3 10 1 10 9 0 18 -6 21 -15 7z"/>
<path d="M3816 1937 c3 -10 9 -15 12 -12 3 3 0 11 -7 18 -10 9 -11 8 -5 -6z"/>
<path d="M356 1913 c-6 -14 -5 -15 5 -6 7 7 10 15 7 18 -3 3 -9 -2 -12 -12z"/>
<path d="M236 1773 c-6 -14 -5 -15 5 -6 7 7 10 15 7 18 -3 3 -9 -2 -12 -12z"/>
<path d="M216 1724 c-4 -9 -4 -19 -1 -22 2 -3 7 3 11 12 4 9 4 19 1 22 -2 3
-7 -3 -11 -12z"/>
<path d="M4050 1695 c1 -26 2 -28 11 -12 8 14 8 22 0 30 -8 8 -11 3 -11 -18z"/>
<path d="M182 1613 c9 -11 6 -13 -15 -9 -15 2 -29 0 -32 -5 -4 -5 -1 -9 4 -9
6 0 11 -7 11 -16 0 -14 1 -14 16 0 22 22 27 20 14 -6 -11 -22 -10 -22 4 -4 20
25 21 63 1 63 -11 0 -12 -3 -3 -14z"/>
<path d="M4030 1582 c0 -22 40 -92 53 -92 8 0 9 2 1 8 -6 4 -15 18 -19 32 -10
31 -35 69 -35 52z"/>
<path d="M4443 1542 c-25 -2 -31 -7 -26 -20 9 -25 45 -63 70 -73 16 -6 20 -13
16 -30 -5 -18 -3 -21 10 -16 10 4 16 2 14 -5 -1 -7 3 -12 10 -13 7 0 19 -9 28
-20 9 -11 13 -14 9 -6 -5 9 -3 12 5 7 6 -4 9 -12 6 -17 -4 -5 6 -31 21 -59 20
-37 36 -52 60 -60 19 -7 34 -16 34 -21 0 -5 5 -9 11 -9 8 0 8 4 -1 15 -6 8 -9
19 -5 26 4 6 2 21 -4 32 -6 12 -15 34 -21 50 -5 15 -16 27 -25 27 -8 0 -15 4
-15 9 0 5 -9 7 -19 4 -27 -7 -82 74 -60 88 11 7 9 9 -9 9 -21 0 -22 1 -8 16
17 17 21 28 7 20 -5 -3 -11 1 -14 9 -9 21 -58 41 -94 37z"/>
<path d="M4346 1492 c-2 -4 4 -8 14 -8 10 0 16 4 14 8 -3 4 -9 8 -14 8 -5 0
-11 -4 -14 -8z"/>
<path d="M4324 1458 c-5 -8 -2 -9 9 -5 9 3 19 2 23 -4 3 -6 13 -8 22 -4 9 3
13 3 9 -1 -4 -4 -2 -13 4 -20 7 -9 2 -14 -21 -19 -32 -7 -35 -12 -20 -35 8
-13 10 -12 10 3 0 19 26 23 33 5 3 -9 11 -6 25 9 18 18 19 23 7 33 -8 7 -15
18 -15 25 0 24 -72 36 -86 13z"/>
<path d="M62 1418 c-7 -22 -11 -43 -8 -46 12 -11 36 22 36 49 0 43 -14 42 -28
-3z"/>
<path d="M4425 1450 c3 -5 8 -10 11 -10 2 0 4 5 4 10 0 6 -5 10 -11 10 -5 0
-7 -4 -4 -10z"/>
<path d="M4112 1406 c2 -24 6 -42 9 -40 3 2 16 -16 29 -39 l23 -42 -27 25
c-18 17 -25 19 -21 8 4 -9 3 -24 -2 -33 -8 -14 -14 -11 -41 20 -44 49 -40 33
5 -21 25 -32 39 -41 44 -32 4 6 5 17 2 23 -3 5 6 -1 19 -15 14 -14 23 -32 21
-40 -4 -12 -3 -12 4 -2 7 10 16 5 33 -21 13 -19 29 -33 35 -31 13 5 81 -63 72
-72 -3 -4 -1 -16 5 -27 10 -19 11 -19 20 -3 6 11 6 21 -1 30 -5 6 -8 22 -4 34
4 18 1 22 -17 22 -17 0 -21 4 -17 20 3 11 -1 27 -10 35 -8 8 -12 19 -9 24 3 5
-3 20 -14 34 -11 14 -20 30 -20 36 0 6 -4 11 -10 11 -5 0 -10 9 -10 20 0 10
-10 29 -22 41 -13 12 -17 19 -10 14 10 -5 9 1 -2 24 -9 17 -19 31 -22 31 -2 0
1 -10 7 -22 l12 -23 -24 21 c-13 12 -32 24 -42 27 -16 6 -17 1 -15 -37z m115
-191 c9 -25 -4 -29 -17 -6 -7 15 -7 21 0 21 6 0 13 -7 17 -15z"/>
<path d="M4294 1375 c6 -39 22 -59 38 -48 12 7 -1 43 -24 67 l-20 21 6 -40z"/>
<path d="M4426 1382 c-3 -5 -7 -23 -8 -41 -1 -17 -8 -31 -15 -31 -7 0 -10 -7
-7 -15 4 -8 10 -12 15 -9 5 3 9 -2 9 -11 0 -12 -6 -15 -21 -10 -15 5 -19 4
-14 -4 4 -7 20 -10 38 -7 24 4 34 0 46 -17 9 -12 17 -29 17 -37 1 -8 2 -19 3
-25 1 -5 5 -4 10 4 7 11 13 8 26 -13 21 -32 31 -33 39 -3 l6 22 20 -24 c11
-13 20 -18 20 -12 0 6 9 2 20 -9 11 -11 20 -27 20 -35 0 -9 7 -18 15 -21 8 -4
15 -15 15 -26 0 -13 -5 -18 -14 -15 -8 3 -21 -2 -30 -12 -19 -21 -21 -38 -3
-23 7 6 26 10 42 8 17 -2 33 1 37 7 4 8 14 5 29 -8 l22 -20 -5 27 c-3 15 0 29
5 31 7 2 7 6 -1 11 -7 4 -12 2 -12 -3 0 -20 -16 -11 -33 18 -10 17 -26 33 -37
36 -11 4 -20 13 -20 20 0 8 -12 26 -26 40 -21 21 -29 24 -36 13 -7 -10 -8 -8
-4 5 7 21 -7 51 -38 85 -11 13 -21 29 -22 35 -3 32 -5 37 -14 37 -5 0 -10 -10
-10 -22 l-1 -23 -17 21 c-10 11 -23 19 -30 16 -7 -2 -11 5 -10 19 3 22 -16 37
-26 21z m64 -82 c0 -5 -4 -10 -9 -10 -6 0 -13 5 -16 10 -3 6 1 10 9 10 9 0 16
-4 16 -10z m71 -80 c5 0 9 -7 9 -15 0 -18 -21 -20 -38 -3 -17 17 -15 31 4 24
9 -3 20 -6 25 -6z"/>
<path d="M4240 1346 c0 -2 6 -9 13 -15 10 -8 14 -7 14 4 0 8 -6 15 -14 15 -7
0 -13 -2 -13 -4z"/>
<path d="M4816 1296 c3 -8 13 -17 22 -21 13 -5 13 -2 -3 15 -21 24 -26 25 -19
6z"/>
<path d="M4711 1284 c13 -16 29 -19 29 -5 0 5 -9 11 -21 14 -16 4 -18 3 -8 -9z"/>
<path d="M0 1195 c0 -8 4 -15 10 -15 5 0 7 7 4 15 -4 8 -8 15 -10 15 -2 0 -4
-7 -4 -15z"/>
<path d="M4731 1183 c-1 -6 4 -15 10 -18 6 -4 8 -13 5 -21 -5 -13 6 -18 27
-15 4 0 7 -7 7 -16 0 -15 2 -15 9 -4 7 10 3 23 -12 42 -12 14 -25 25 -29 23
-3 -2 -9 2 -11 8 -4 9 -6 10 -6 1z"/>
<path d="M4360 1122 c6 -13 14 -21 18 -18 3 4 -2 14 -12 24 -18 16 -18 16 -6
-6z"/>
<path d="M4580 1110 c0 -5 5 -10 10 -10 6 0 10 5 10 10 0 6 -4 10 -10 10 -5 0
-10 -4 -10 -10z"/>
<path d="M4300 1017 c0 -7 11 -24 25 -37 l25 -24 -15 32 c-18 36 -35 50 -35
29z"/>
<path d="M4370 986 c0 -8 19 -24 43 -36 l42 -22 -27 25 c-16 15 -28 31 -28 37
0 5 -7 10 -15 10 -8 0 -15 -6 -15 -14z"/>
<path d="M4635 990 c-3 -4 -14 -6 -25 -3 -25 7 -27 -15 -2 -33 23 -18 35 -17
28 1 -7 20 3 19 26 -2 11 -9 18 -11 18 -5 0 7 -4 12 -10 12 -5 0 -10 7 -10 16
0 14 3 14 15 4 10 -9 15 -9 15 -1 0 6 -3 11 -7 12 -5 0 -16 2 -25 4 -10 2 -20
0 -23 -5z"/>
<path d="M6166 942 c-3 -5 1 -9 9 -9 8 0 12 4 9 9 -3 4 -7 8 -9 8 -2 0 -6 -4
-9 -8z"/>
<path d="M4420 911 c0 -6 4 -13 10 -16 6 -3 7 1 4 9 -7 18 -14 21 -14 7z"/>
<path d="M4461 912 c-2 -22 29 -72 43 -72 14 0 136 -128 136 -142 0 -4 -7 -5
-15 -2 -8 4 -15 1 -15 -5 0 -6 5 -11 10 -11 6 0 10 -7 10 -15 0 -8 7 -15 15
-15 8 0 15 -4 15 -10 0 -5 5 -10 11 -10 6 0 1 12 -11 27 -13 17 -17 29 -10 31
8 3 8 8 -1 18 -23 28 31 9 58 -21 50 -54 34 8 -18 70 -9 11 -20 33 -23 49 -5
20 -10 26 -15 17 -6 -9 -13 -9 -34 0 -20 9 -27 20 -27 41 0 15 -4 28 -10 28
-5 0 -9 4 -7 9 2 8 -3 11 -18 11 -3 0 1 -10 10 -23 8 -13 12 -26 9 -30 -4 -4
0 -17 8 -29 8 -13 17 -31 21 -40 12 -33 -33 4 -54 44 -11 21 -23 37 -27 36
-11 -4 -48 25 -55 42 -4 10 -6 11 -6 2z m193 -134 c-3 -5 2 -18 11 -28 9 -10
12 -21 7 -24 -13 -8 -33 18 -36 48 -2 17 1 23 10 19 8 -3 11 -9 8 -15z"/>
<path d="M4436 868 c12 -22 47 -58 56 -58 4 0 -2 16 -14 35 -21 32 -59 52 -42
23z"/>
<path d="M6361 801 c-12 -8 -13 -12 -1 -26 11 -13 15 -13 22 -3 8 10 11 10 15
1 8 -20 23 -15 16 5 -11 29 -29 37 -52 23z"/>
<path d="M4549 756 c14 -14 27 -26 29 -26 10 0 -26 44 -39 48 -8 3 -3 -7 10
-22z"/>
<path d="M6141 733 c14 -23 49 -47 49 -35 0 9 -25 33 -48 47 -11 6 -11 3 -1
-12z"/>
<path d="M6440 730 c0 -5 4 -10 9 -10 6 0 13 5 16 10 3 6 -1 10 -9 10 -9 0
-16 -4 -16 -10z"/>
<path d="M4700 625 c0 -2 23 -25 50 -51 28 -26 48 -50 44 -53 -3 -3 -16 7 -29
24 -13 16 -26 27 -29 24 -7 -6 43 -60 82 -87 41 -29 41 -20 -1 32 -46 56 -56
76 -24 47 15 -14 27 -19 27 -12 0 7 5 9 11 5 8 -5 8 -1 0 14 -12 23 -31 38
-31 25 0 -18 -43 -7 -57 14 -13 20 -43 32 -43 18z"/>
<path d="M4860 559 c0 -5 5 -7 10 -4 6 3 10 8 10 11 0 2 -4 4 -10 4 -5 0 -10
-5 -10 -11z"/>
<path d="M5930 535 c13 -14 20 -25 17 -25 -4 0 0 -11 9 -25 9 -14 24 -25 33
-24 10 0 11 2 4 6 -7 2 -13 9 -13 15 0 14 -51 78 -63 78 -6 0 0 -11 13 -25z"/>
<path d="M5985 529 c-4 -6 -5 -12 -2 -15 2 -3 7 2 10 11 7 17 1 20 -8 4z"/>
<path d="M941 495 c0 -5 3 -16 8 -23 7 -11 9 -10 14 3 4 9 3 14 -2 10 -5 -3
-12 1 -14 7 -3 7 -6 9 -6 3z"/>
<path d="M5990 442 c0 -5 9 -17 20 -27 11 -10 20 -22 20 -26 0 -11 73 -79 79
-74 4 5 -69 106 -89 122 -18 15 -30 16 -30 5z"/>
<path d="M6110 441 c0 -5 7 -15 17 -22 15 -13 15 -12 4 9 -12 23 -21 28 -21
13z"/>
<path d="M4896 431 c-10 -16 0 -28 31 -36 15 -3 44 -15 65 -25 21 -10 38 -17
38 -15 0 14 -45 75 -55 75 -7 0 -26 3 -43 6 -17 4 -32 1 -36 -5z"/>
<path d="M388 383 c7 -3 16 -2 19 1 4 3 -2 6 -13 5 -11 0 -14 -3 -6 -6z"/>
<path d="M5080 368 c0 -18 2 -20 10 -8 7 12 12 12 22 2 6 -6 17 -12 23 -12 11
0 -35 39 -47 40 -5 0 -8 -10 -8 -22z"/>
<path d="M5480 373 c0 -5 9 -18 20 -28 11 -10 20 -14 20 -8 0 5 -9 18 -20 28
-11 10 -20 14 -20 8z"/>
<path d="M5285 340 c3 -5 8 -10 11 -10 2 0 4 5 4 10 0 6 -5 10 -11 10 -5 0 -7
-4 -4 -10z"/>
<path d="M5790 340 c0 -5 5 -10 10 -10 6 0 10 5 10 10 0 6 -4 10 -10 10 -5 0
-10 -4 -10 -10z"/>
<path d="M4990 326 c0 -18 22 -45 57 -71 22 -17 31 -21 22 -9 -9 10 -20 29
-24 42 -3 12 -11 19 -17 16 -6 -4 -17 1 -25 11 -7 11 -13 15 -13 11z"/>
<path d="M5076 315 c4 -8 9 -15 13 -15 4 0 21 -13 37 -30 16 -16 34 -30 40
-30 6 0 17 -6 23 -14 7 -8 42 -33 79 -56 65 -39 66 -40 30 -8 -20 18 -61 48
-91 67 -29 18 -71 48 -91 67 -41 38 -48 41 -40 19z"/>
<path d="M5555 290 c16 -16 30 -28 33 -26 7 8 -33 55 -47 56 -10 0 -4 -11 14
-30z"/>
<path d="M5191 307 c2 -1 13 -9 24 -17 19 -14 19 -14 6 3 -7 9 -18 17 -24 17
-6 0 -8 -1 -6 -3z"/>
<path d="M370 260 c0 -5 5 -10 10 -10 6 0 10 5 10 10 0 6 -4 10 -10 10 -5 0
-10 -4 -10 -10z"/>
<path d="M930 230 c-12 -8 -11 -10 8 -10 12 0 22 5 22 10 0 13 -11 13 -30 0z"/>
<path d="M5950 237 c0 -2 11 -18 24 -36 14 -19 27 -28 31 -22 3 6 1 11 -5 11
-6 0 -16 11 -22 25 -9 20 -28 35 -28 22z"/>
<path d="M620 214 c0 -8 5 -12 10 -9 6 3 10 10 10 16 0 5 -4 9 -10 9 -5 0 -10
-7 -10 -16z"/>
<path d="M5090 220 c0 -5 5 -10 11 -10 5 0 7 5 4 10 -3 6 -8 10 -11 10 -2 0
-4 -4 -4 -10z"/>
<path d="M5690 165 c13 -14 26 -25 28 -25 3 0 -5 11 -18 25 -13 14 -26 25 -28
25 -3 0 5 -11 18 -25z"/>
<path d="M5720 126 c0 -2 8 -10 18 -17 15 -13 16 -12 3 4 -13 16 -21 21 -21
13z"/>
</g>
</svg>
